<?xml version="1.0" encoding="utf-8"?>
<svg xmlns="http://www.w3.org/2000/svg" viewBox="-99.3185 -161.4926 799.5397 608.7976" width="799.54px" height="608.798px">
  <g id="Layer_1" transform="matrix(0.9999999999999999, 0, 0, 0.9999999999999999, -2.2737367544323206e-13, 0)">
    <path fill="#5BD3AA" opacity="1.000000" stroke="none" d="M 657.935 376.329 C 658.389 376.382 658.842 376.436 659.423 376.824 C 659.384 377.525 659.215 377.891 659.07 378.265 C 659.066 378.273 659.33 378.438 659.471 378.443 C 669.328 378.767 679.185 379.082 689.042 379.398 C 689.042 379.398 688.963 379.41 689.114 379.655 C 689.865 380.074 690.465 380.249 691.066 380.423 C 691.38 380.387 691.643 380.485 692.012 381.204 C 692.454 381.94 692.741 382.189 693.029 382.439 C 693.029 382.439 692.955 382.433 693.068 382.642 C 693.47 383.042 693.758 383.233 694.046 383.423 C 694.046 383.423 693.973 383.444 694.079 383.65 C 694.474 384.045 694.764 384.235 695.054 384.424 C 695.054 384.424 694.983 384.451 695.102 384.666 C 695.547 385.051 695.875 385.221 696.202 385.391 C 696.546 385.447 696.783 385.637 696.947 386.608 C 699.538 394.248 698.73 401.4 697.994 408.55 C 697.994 408.55 697.984 408.473 697.689 408.612 C 696.942 410.018 696.49 411.286 696.038 412.553 C 696.038 412.553 696.064 412.478 695.842 412.602 C 695.698 413.283 695.775 413.84 695.853 414.398 C 688.276 430.159 676.21 440.659 659.088 444.57 C 652.045 446.18 644.691 447.177 637.477 447.182 C 411.497 447.321 185.516 447.308 -40.465 447.301 C -67.468 447.3 -90.233 432.088 -97.652 408.762 C -99.02 404.463 -99.53 399.63 -99.24 395.119 C -98.664 386.026 -93.357 380.25 -84.047 377.83 C -69.836 378.242 -56.287 378.375 -42.737 378.376 C -41.877 378.376 -41.016 377.35 -40.156 376.801 C -39.98 376.717 -39.804 376.634 -39.103 376.492 C -38.577 376.433 -38.091 376.357 -37.63 376.393 C -33.79 376.387 -30.409 376.345 -26.791 376.35 C -26.554 376.397 -26.071 376.364 -26.071 376.364 C -25.877 376.441 -25.684 376.517 -25.1 377.097 C -24.309 377.864 -23.909 378.359 -23.507 378.361 C -7.676 378.423 8.155 378.449 23.986 378.4 C 24.316 378.398 24.644 377.45 24.973 376.943 C 25.118 376.842 25.262 376.741 25.921 376.579 C 26.612 376.498 26.789 376.479 27.218 376.461 C 27.638 376.448 27.806 376.432 28.439 376.439 C 64.58 376.488 100.257 376.513 136.058 376.917 C 136.847 377.673 137.51 378.373 138.178 378.378 C 148.873 378.453 159.568 378.476 170.262 378.374 C 171.135 378.366 171.999 377.359 173.098 376.671 C 173.507 376.49 173.686 376.454 174.124 376.425 C 174.555 376.411 174.727 376.39 175.37 376.406 C 188.235 376.398 200.631 376.353 213.265 376.335 C 213.505 376.361 213.983 376.298 213.983 376.298 C 213.983 376.298 214.46 376.371 214.833 376.505 C 215.441 376.76 215.676 376.882 215.805 377.279 C 215.983 377.854 216.264 378.413 216.547 378.414 C 227.643 378.461 238.739 378.47 249.834 378.404 C 250.232 378.402 250.626 377.586 251.307 376.986 C 252.012 376.694 252.432 376.567 253.118 376.457 C 253.561 376.463 253.739 376.451 254.386 376.467 C 296.526 376.453 338.196 376.411 380.156 376.375 C 380.636 376.375 380.829 376.368 381.339 376.402 C 382.085 376.42 382.511 376.398 383.318 376.406 C 384.459 376.409 385.22 376.382 386.301 376.389 C 387.05 376.4 387.478 376.377 388.374 376.392 C 394.214 376.401 399.585 376.372 405.396 376.381 C 408.206 376.407 410.574 376.395 413.411 376.406 C 429.245 376.414 444.611 376.399 460.444 376.406 C 476.699 376.416 492.488 376.404 508.709 376.414 C 519.767 376.402 530.391 376.369 541.331 376.371 C 542.071 376.389 542.496 376.372 543.366 376.391 C 546.197 376.393 548.583 376.359 551.433 376.362 C 556.903 376.376 561.911 376.353 567.338 376.371 C 569.161 376.385 570.564 376.359 572.394 376.366 C 574.544 376.395 576.267 376.391 578.455 376.41 C 600.932 376.403 622.945 376.374 645.282 376.385 C 646.041 376.394 646.475 376.362 647.362 376.364 C 650.539 376.365 653.264 376.332 656.312 376.335 C 657.069 376.357 657.502 376.343 657.935 376.329 Z"/>
    <path fill="#398CE4" opacity="1.000000" stroke="none" d="M 270.974 -17.62 C 275.777 -17.598 280.589 -17.76 285.378 -17.495 C 288.982 -17.295 290.021 -18.84 289.923 -22.161 C 289.776 -27.124 289.876 -32.096 289.939 -37.064 C 290.019 -43.507 292.974 -46.497 299.343 -46.542 C 304.973 -46.582 310.604 -46.519 317.004 -46.544 C 318.158 -46.573 318.542 -46.559 319.397 -46.544 C 330.238 -46.538 340.609 -46.534 350.959 -46.062 C 350.947 14.42 350.956 74.435 350.952 134.852 C 350.947 136.328 350.955 137.401 350.951 138.927 C 350.947 142.403 350.955 145.427 350.95 148.921 C 350.947 177.441 350.918 205.492 351.005 233.543 C 351.02 238.155 351.544 242.766 351.57 247.527 C 350.138 247.04 348.697 246.654 347.845 245.726 C 341.902 239.259 335.638 233.017 330.351 226.041 C 325.356 219.448 318.952 217.504 311.323 217.511 C 296.532 217.524 281.741 217.503 266.946 217.024 C 266.94 144.515 266.924 72.478 266.965 0.441 C 266.968 -5.006 267.376 -10.454 267.596 -15.902 C 267.596 -15.902 267.737 -15.857 267.997 -15.837 C 268.428 -16.15 268.598 -16.483 268.769 -16.815 C 268.769 -16.815 268.93 -16.663 269.165 -16.653 C 269.924 -16.968 270.449 -17.294 270.974 -17.62 M 330.903 71.231 C 328.051 70.677 325.047 69.324 322.395 69.826 C 320.356 70.213 317.34 72.836 317.213 74.637 C 316.653 82.591 316.704 90.622 317.107 98.596 C 317.299 102.377 320.469 103.534 324.049 103.424 C 327.408 103.321 331.678 103.687 331.846 99.266 C 332.194 90.159 331.641 81.018 330.903 71.231 M 332.051 132.134 C 332.051 131.635 332.059 131.136 332.05 130.638 C 331.953 124.779 330.602 123.492 324.553 123.49 C 318.797 123.488 316.995 125.176 316.968 130.761 C 316.936 137.74 316.856 144.723 317.032 151.699 C 317.134 155.728 319.926 157.484 325.29 157.374 C 329.157 157.294 332.216 156.425 332.108 151.541 C 331.972 145.395 332.059 139.244 332.051 132.134 M 285.861 85.963 C 285.864 89.947 285.676 93.944 285.919 97.913 C 286.203 102.534 289.697 103.285 293.405 103.31 C 297.149 103.336 300.728 102.501 300.881 97.916 C 301.135 90.287 301.203 82.633 300.861 75.011 C 300.631 69.88 296.518 69.453 292.482 69.517 C 288.543 69.579 285.61 70.712 285.826 75.509 C 285.968 78.657 285.858 81.817 285.861 85.963 M 286.778 125.135 C 286.469 126.556 285.914 127.974 285.895 129.4 C 285.803 136.209 285.822 143.021 285.871 149.831 C 285.909 155.133 287.43 156.425 293.391 156.421 C 298.973 156.417 300.901 154.749 300.947 149.654 C 301.008 143.01 300.995 136.365 300.945 129.721 C 300.907 124.842 298.326 122.328 293.475 122.764 C 291.402 122.95 289.398 123.917 286.778 125.135 M 298.954 16.908 C 290.633 12.812 285.83 15.59 285.841 24.493 C 285.848 30.628 285.942 36.764 285.832 42.896 C 285.737 48.177 289.105 48.638 293.123 48.596 C 297.113 48.553 301.047 48.712 300.987 42.978 C 300.912 35.849 301.028 28.718 300.887 21.591 C 300.86 20.221 300.022 18.866 298.954 16.908 M 331.538 46.151 C 331.71 38.013 331.784 29.871 332.089 21.739 C 332.278 16.704 329.399 15.491 325.168 15.44 C 319.312 15.37 317.046 16.914 316.968 21.618 C 316.85 28.781 316.748 35.956 317.092 43.104 C 317.177 44.869 318.924 47.942 320.054 48.011 C 323.666 48.233 327.348 47.325 331.538 46.151 Z"/>
    <path fill="#2C64B7" opacity="1.000000" stroke="none" d="M 266.951 217.496 C 281.741 217.503 296.532 217.524 311.323 217.511 C 318.952 217.504 325.356 219.448 330.351 226.041 C 335.638 233.017 341.902 239.259 347.845 245.726 C 348.697 246.654 350.138 247.04 351.859 247.76 C 353.307 249.925 353.774 252.372 355.176 254.026 C 360.808 260.671 367.015 266.843 372.438 273.646 C 375.791 277.852 381.092 281.093 380.457 287.51 C 338.018 287.536 296.044 287.577 253.792 287.577 C 253.325 287.52 253.138 287.504 252.812 287.177 C 251.819 285.649 251.073 284.334 250.092 283.227 C 233.889 264.939 217.674 246.662 201.422 228.417 C 195.15 221.375 191.424 221.434 185.195 228.512 C 173.123 242.228 161.056 255.948 148.959 269.264 C 148.915 268.056 148.897 267.25 148.903 265.977 C 148.916 255.835 148.906 246.16 148.918 236.015 C 148.931 229.513 148.921 223.481 148.93 216.982 C 148.934 206.509 148.919 196.504 148.925 186.026 C 148.94 179.522 148.935 173.489 148.947 166.989 C 148.961 156.834 148.956 147.147 148.962 136.992 C 148.974 123.511 148.975 110.499 149.088 97.247 C 149.463 96.781 149.727 96.554 149.99 96.327 C 166.505 106.018 183.02 115.708 199.877 125.979 C 200.866 126.813 201.514 127.067 202.162 127.321 C 202.162 127.321 202.01 127.365 202.136 127.603 C 202.888 128.031 203.514 128.221 204.139 128.412 C 204.481 128.386 204.739 128.52 204.932 129.522 C 204.958 157.509 204.929 184.791 205.059 212.072 C 205.068 213.872 206.289 215.666 206.946 217.462 C 206.946 217.462 206.945 217.462 207.055 217.853 C 207.821 218.643 208.474 219.387 209.131 219.389 C 226.768 219.456 244.406 219.477 262.043 219.367 C 263.011 219.361 263.97 218.153 264.934 217.504 C 264.934 217.504 264.871 217.473 265.221 217.464 C 266.03 217.47 266.49 217.483 266.951 217.496 Z"/>
    <path fill="#2E66B9" opacity="1.000000" stroke="none" d="M 380.924 287.525 C 381.092 281.093 375.791 277.852 372.438 273.646 C 367.015 266.843 360.808 260.671 355.176 254.026 C 353.774 252.372 353.307 249.925 352.122 247.609 C 351.544 242.766 351.02 238.155 351.005 233.543 C 350.918 205.492 350.947 177.441 351.237 148.641 C 351.346 144.753 351.154 141.613 350.963 138.474 C 350.955 137.401 350.947 136.328 351.245 134.559 C 351.683 131.061 351.796 128.259 351.953 125.459 C 352.091 122.998 351.323 119.583 352.635 118.27 C 355.778 115.126 355.349 113.16 351.721 111.139 C 353.192 108.491 358.549 107.114 354.289 103.482 C 351.195 100.844 351.674 99.389 354.143 96.344 C 356.546 93.381 362.004 90.061 356.518 84.72 C 355.823 84.044 357.484 80.194 358.885 78.505 C 359.415 77.866 362.65 78.691 364.049 79.691 C 369.081 83.292 365.903 88.243 365.236 92.403 C 364.465 97.211 364.777 98.484 370.298 99.607 C 371.004 100.359 371.484 100.936 372.081 101.73 C 372.419 102.213 372.699 102.377 373.266 102.448 C 373.494 102.457 373.947 102.493 374.236 102.78 C 376.667 103.198 378.824 103.545 380.949 103.408 C 383.789 103.224 387.865 103.665 389.151 102.045 C 391.383 99.232 393.33 100.3 395.63 100.551 C 398.414 100.854 401.2 101.132 403.97 101.426 C 403.956 101.43 403.972 101.415 404.044 101.809 C 407.38 102.232 410.644 102.26 414.091 102.069 C 414.813 101.677 415.353 101.504 416.09 101.601 C 418.556 101.323 423.112 95.834 422.51 94.083 C 421.435 93.974 420.269 93.856 419.293 93.758 C 419.293 89.958 419.293 86.572 419.293 83.255 C 422.872 81.742 426.319 80.285 429.767 78.828 C 429.619 78.474 429.472 78.121 429.324 77.767 C 427.659 77.884 425.994 78.001 423.989 78.142 C 424.874 73.081 427.696 70.854 432.13 70.551 C 434.692 70.376 437.272 70.488 439.87 70.869 C 439.881 72.331 439.867 73.396 439.519 74.518 C 437.546 77.329 433.872 81.241 434.654 82.616 C 436.845 86.465 436.738 89.27 432.998 93.15 C 436.081 93.294 437.967 93.383 439.872 93.898 C 439.874 96.034 439.856 97.744 439.477 99.45 C 437.89 99.259 436.664 99.071 435.093 98.831 C 435.39 102.352 436.022 105.046 439.87 105.935 C 439.902 125.343 439.888 144.284 439.962 163.224 C 439.968 164.958 440.532 166.69 440.838 168.422 C 440.892 169.515 440.946 170.608 440.655 172.329 C 440.486 174.445 440.661 175.934 440.836 177.423 C 440.881 190.46 440.926 203.498 440.515 217.099 C 439.687 219.164 439.027 220.659 438.993 222.168 C 438.863 227.933 438.934 233.702 438.597 239.518 C 438.487 240.529 438.708 241.492 438.934 242.924 C 438.934 252.086 438.93 260.778 438.565 269.505 C 435.625 270.653 434.198 270.145 433.822 267.029 C 433.7 266.02 432.186 265.18 431.309 264.263 C 430.952 264.646 430.595 265.029 430.239 265.412 C 431.099 266.887 431.959 268.362 433.121 270.355 C 428.048 272.109 423.447 273.7 418.846 275.292 C 416.577 276.614 422.151 281.661 415.695 282.388 C 410.731 282.947 411.731 278.653 411.377 276.159 C 409.159 277.307 406.373 279.679 405.421 279.089 C 399.481 275.412 400.198 279.6 400.388 283.537 C 398.213 282.871 396.41 282.319 393.626 281.466 C 393.085 285.573 392.605 289.225 392.027 293.617 C 391.227 292.015 390.71 290.98 390.033 289.625 C 389.03 290.699 388.371 292.078 387.486 292.243 C 381.676 293.325 382.963 297.737 382.958 301.5 C 382.931 323.148 382.985 344.797 382.866 366.444 C 382.857 368.117 381.727 369.783 381.074 370.987 C 380.994 342.855 380.959 315.19 380.924 287.525 M 416.933 124.723 C 415.936 120.688 412.916 119.671 409.256 119.444 C 406.219 119.255 405.209 120.965 404.685 124.102 C 403.788 124.894 402.891 125.686 401.223 126.558 C 400.254 128.649 398.58 130.696 398.445 132.84 C 398 139.923 395.884 147.431 402.182 153.997 C 402.776 154.501 403.37 155.006 404.19 155.941 C 404.403 156.206 404.675 156.375 405.654 156.455 C 406.086 156.467 406.517 156.479 407.057 157.178 C 409.348 159.775 411.486 161.062 413.609 156.4 C 415.057 155.085 416.506 153.771 418.546 151.869 C 418.68 145.759 418.93 139.648 418.889 133.539 C 418.873 131.185 418.196 128.835 417.417 126.259 C 417.178 126.049 417.018 125.79 416.933 124.723 M 372.156 156.829 C 372.431 157.038 372.706 157.247 373.689 157.52 C 376.43 157.499 379.171 157.478 382.361 157.256 C 382.643 157.064 382.836 156.805 383.379 156.427 C 383.379 156.427 383.823 156.412 384.625 156.436 C 388.741 156.278 388.858 152.612 388.719 150.325 C 388.477 146.329 391.429 141.298 385.935 137.632 C 385.946 136.241 385.957 134.85 386.706 133.368 C 390.117 130.103 389.889 128.403 385.258 126.21 C 384.148 125.332 383.037 124.454 381.443 122.95 C 378.936 123.133 376.429 123.316 373.321 123.809 C 372.189 125.694 371.057 127.58 369.174 129.619 C 369.107 134.817 369.036 140.015 369.013 145.213 C 369.013 145.293 369.605 145.377 369.952 146.339 C 370.629 149.669 371.307 152.999 372.156 156.829 Z"/>
    <path fill="#61B5F0" opacity="1.000000" stroke="none" d="M 644.957 376.344 C 622.945 376.374 600.932 376.403 578.474 375.949 C 578.029 304.598 578.032 233.73 578.023 162.862 C 578.023 160.704 577.891 158.547 578.004 156.332 C 578.186 156.275 578.521 156.461 578.521 156.461 C 578.521 156.461 578.621 156.278 579.022 156.627 C 580.225 157.137 581.027 157.436 581.83 157.437 C 604.444 157.464 627.058 157.472 649.672 157.422 C 650.742 157.419 651.81 156.85 652.878 156.545 C 653.891 158.387 655.776 160.224 655.786 162.071 C 655.943 190.973 655.858 219.876 655.33 249.194 C 652.893 249.593 650.956 249.577 648.643 249.56 C 641.786 251.096 636.984 255.101 633.081 260.233 C 620.517 276.752 616.476 295.847 617.19 316.06 C 617.498 324.775 619.561 333.68 627.256 339.013 C 632.566 342.693 639.041 344.693 645.006 347.713 C 645.038 348.161 645.059 348.339 645.034 348.879 C 645 349.97 645.012 350.7 644.988 351.898 C 644.976 359.409 644.999 366.45 644.986 373.847 C 644.951 374.917 644.954 375.63 644.957 376.344 Z"/>
    <path fill="#DCF1FC" opacity="1.000000" stroke="none" d="M -7.48 -55.708 C -1.15 -74.07 14.593 -80.463 39.442 -74.928 C 41.42 -79.761 43.114 -84.784 45.459 -89.483 C 58.826 -116.27 94.356 -125.7 119.525 -109.58 C 129.971 -102.9 136.764 -93.589 140.729 -82.216 C 142.143 -78.163 144.062 -77.247 147.878 -77.482 C 157.345 -78.064 165.677 -75.618 173.076 -69.097 C 186.891 -56.92 185.012 -33.332 166.871 -23.701 C 162.364 -21.308 156.833 -19.73 151.76 -19.694 C 107.932 -19.386 64.101 -19.503 20.271 -19.522 C 2.004 -19.53 -10.912 -34.773 -8.067 -52.893 C -7.939 -53.71 -7.781 -54.522 -7.48 -55.708 Z"/>
    <path fill="#2C64B7" opacity="1.000000" stroke="none" d="M 370.072 99.431 C 364.777 98.484 364.465 97.211 365.236 92.403 C 365.903 88.243 369.081 83.292 364.049 79.691 C 362.65 78.691 359.415 77.866 358.885 78.505 C 357.484 80.194 355.823 84.044 356.518 84.72 C 362.004 90.061 356.546 93.381 354.143 96.344 C 351.674 99.389 351.195 100.844 354.289 103.482 C 358.549 107.114 353.192 108.491 351.721 111.139 C 355.349 113.16 355.778 115.126 352.635 118.27 C 351.323 119.583 352.091 122.998 351.953 125.459 C 351.796 128.259 351.683 131.061 351.258 134.156 C 350.956 74.435 350.947 14.42 351.418 -46.055 C 354.049 -46.513 356.223 -46.709 358.345 -46.461 C 362.177 -46.012 363.153 -47.676 363.042 -51.287 C 362.823 -58.392 363.035 -65.511 363.529 -72.596 C 373.707 -72.268 383.425 -71.969 393.143 -71.671 C 393.143 -71.671 393.02 -71.632 393.101 -71.413 C 393.509 -70.999 393.834 -70.804 394.16 -70.608 C 394.16 -70.608 394.034 -70.605 394.001 -70.182 C 393.969 -63.472 393.848 -57.18 394.06 -50.9 C 394.11 -49.426 395.285 -47.991 395.942 -46.539 C 395.942 -46.539 395.945 -46.538 396.052 -46.144 C 397.482 -45.352 398.798 -44.639 400.129 -44.609 C 405.438 -44.49 410.75 -44.583 416.062 -44.598 C 416.062 -44.598 415.981 -44.577 416.073 -44.358 C 416.472 -43.952 416.779 -43.764 417.085 -43.576 C 417.085 -43.576 416.993 -43.579 416.975 -43.198 C 417.585 -39.402 418.212 -35.989 418.84 -32.575 C 418.893 -30.506 418.947 -28.437 418.651 -25.689 C 418.494 -23.195 418.688 -21.38 418.881 -19.565 C 418.881 -19.565 419.101 -19.336 419.24 -18.792 C 424.952 -18.052 430.525 -17.854 436.098 -17.657 C 436.098 -17.657 435.964 -17.684 436.106 -17.431 C 436.859 -16.976 437.47 -16.774 438.081 -16.572 C 438.435 -16.594 438.702 -16.452 438.948 -15.577 C 439.42 -14.539 439.83 -14.072 440.239 -13.605 C 440.492 -13.106 440.746 -12.606 440.639 -11.525 C 440.163 -9.126 439.948 -7.311 439.944 -5.495 C 439.894 19.827 439.873 45.149 439.844 70.471 C 437.272 70.488 434.692 70.376 432.13 70.551 C 427.696 70.854 424.874 73.081 423.989 78.142 C 425.994 78.001 427.659 77.884 429.324 77.767 C 429.472 78.121 429.619 78.474 429.767 78.828 C 426.319 80.285 422.872 81.742 419.293 83.255 C 419.293 86.572 419.293 89.958 419.293 93.758 C 420.269 93.856 421.435 93.974 422.51 94.083 C 423.112 95.834 418.556 101.323 416.287 101.279 C 416.752 100.003 417.61 99.323 417.618 98.633 C 417.709 90.167 417.898 81.687 417.448 73.243 C 417.375 71.881 414.476 70.265 412.586 69.528 C 410.998 68.908 408.977 69.396 407.147 69.397 C 403.703 69.399 401.912 71.017 401.928 74.567 C 401.96 81.885 401.811 89.208 402.024 96.52 C 402.073 98.171 403.301 99.788 403.985 101.421 C 401.2 101.132 398.414 100.854 395.63 100.551 C 393.33 100.3 391.383 99.232 389.151 102.045 C 387.865 103.665 383.789 103.224 380.949 103.408 C 378.824 103.545 376.667 103.198 374.674 102.761 C 375.654 102.452 376.483 102.454 377.313 102.444 C 384.376 102.359 385.927 100.761 385.929 93.574 C 385.931 87.767 385.99 81.958 385.914 76.151 C 385.848 71.137 383.879 69.477 378.264 69.45 C 372.162 69.42 370.027 71.02 369.986 76.037 C 369.921 83.834 370.034 91.633 370.072 99.431 M 406.937 15.509 C 403.311 16.353 401.82 18.628 401.901 22.345 C 402.041 28.813 401.882 35.288 401.961 41.758 C 402.021 46.663 404.303 48.432 410.262 48.441 C 415.867 48.45 417.83 46.781 417.89 41.75 C 417.954 36.275 417.894 30.798 417.9 25.323 C 417.909 16.524 416.85 15.491 406.937 15.509 M 385.929 34.915 C 385.927 30.589 385.997 26.261 385.904 21.937 C 385.809 17.461 383.526 15.572 378.355 15.475 C 372.762 15.37 370.071 17.232 369.993 21.625 C 369.869 28.612 369.706 35.617 370.133 42.58 C 370.245 44.407 372.083 46.908 373.786 47.721 C 380.91 51.123 385.927 47.715 385.932 39.885 C 385.933 38.554 385.931 37.223 385.929 34.915 Z"/>
    <path fill="#DCF1FC" opacity="1.000000" stroke="none" d="M 639.189 -46.275 C 635.016 -44.516 631.123 -41.774 627.193 -41.721 C 599.367 -41.345 571.533 -41.503 543.701 -41.531 C 534.734 -41.54 526.957 -48.206 525.967 -56.594 C 524.843 -66.117 530.469 -74.993 539.257 -77.425 C 541.163 -77.953 543.359 -78.893 545.069 -78.407 C 551.512 -76.575 554.243 -79.224 557.188 -84.985 C 567.303 -104.77 595.212 -109.38 613.064 -92.545 C 616.641 -89.173 618.799 -84.093 620.953 -79.492 C 622.245 -76.733 623.345 -75.065 626.645 -75.512 C 634.346 -76.556 639.641 -72.471 642.737 -66.208 C 646.168 -59.268 645.007 -52.352 639.189 -46.275 Z"/>
    <path fill="#2F6ABB" opacity="1.000000" stroke="none" d="M 381.118 371.453 C 381.727 369.783 382.857 368.117 382.866 366.444 C 382.985 344.797 382.931 323.148 382.958 301.5 C 382.963 297.737 381.676 293.325 387.486 292.243 C 388.371 292.078 389.03 290.699 390.033 289.625 C 390.71 290.98 391.227 292.015 392.027 293.617 C 392.605 289.225 393.085 285.573 393.626 281.466 C 396.41 282.319 398.213 282.871 400.388 283.537 C 400.198 279.6 399.481 275.412 405.421 279.089 C 406.373 279.679 409.159 277.307 411.377 276.159 C 411.731 278.653 410.731 282.947 415.695 282.388 C 422.151 281.661 416.577 276.614 418.846 275.292 C 423.447 273.7 428.048 272.109 433.121 270.355 C 431.959 268.362 431.099 266.887 430.239 265.412 C 430.595 265.029 430.952 264.646 431.309 264.263 C 432.186 265.18 433.7 266.02 433.822 267.029 C 434.198 270.145 435.625 270.653 438.571 269.972 C 438.938 272.355 438.82 274.313 438.964 276.253 C 439.27 280.351 439.713 284.439 440.1 288.532 C 440.059 290.236 440.018 291.941 439.674 294.236 C 438.907 295.674 438.442 296.521 437.663 297.51 C 434.634 299.615 431.921 301.578 428.919 303.627 C 428.426 304.044 428.222 304.376 427.844 304.98 C 425.747 307.318 423.823 309.384 421.567 311.506 C 420.838 312.276 420.44 312.989 419.972 314.035 C 418.875 316.402 417.847 318.435 416.588 320.481 C 416.279 320.85 416.202 321.206 416.087 321.88 C 415.747 322.967 415.445 323.736 414.81 324.684 C 412.015 329.868 410.737 334.988 412.951 340.904 C 412.943 344.067 412.911 346.779 412.628 349.676 C 412.533 351.059 412.69 352.257 412.885 353.917 C 412.9 358.416 412.876 362.453 412.703 366.577 C 412.655 366.921 412.757 367.179 412.892 367.875 C 412.918 370.365 412.91 372.416 412.474 374.466 C 409.682 375.09 407.319 375.716 404.955 376.342 C 399.585 376.372 394.214 376.401 388.231 376.186 C 387.073 376.079 386.527 376.217 385.981 376.355 C 385.22 376.382 384.459 376.409 383.281 376.107 C 382.282 375.345 381.699 374.913 381.078 374.103 C 381.065 372.968 381.092 372.21 381.118 371.453 Z"/>
    <path fill="#39AD81" opacity="1.000000" stroke="none" d="M 508.276 376.393 C 492.488 376.404 476.699 376.416 460.431 375.946 C 459.951 349.937 459.972 324.41 459.905 298.884 C 459.9 296.79 459.303 294.698 458.981 292.605 C 459.385 292.519 459.789 292.433 460.778 292.357 C 461.548 292.358 461.733 292.349 462.343 292.392 C 464.9 292.752 467.031 293.062 469.163 293.369 C 487.782 296.048 502.888 309.537 506.921 327.747 C 510.482 343.826 508.849 360.146 508.276 376.393 Z"/>
    <path fill="#398CE4" opacity="1.000000" stroke="none" d="M 554.205 68.404 C 561.393 75.479 568.581 82.554 575.859 90.338 C 575.942 91.849 575.934 92.651 575.46 93.458 C 563.646 93.462 552.298 93.463 540.481 93.463 C 514.318 93.46 488.625 93.457 462.936 93.067 C 462.933 91.905 462.926 91.131 462.919 90.356 C 464.009 89.124 465.098 87.892 466.735 86.443 C 467.497 85.933 467.711 85.641 467.926 85.349 C 467.926 85.349 467.931 85.448 468.13 85.331 C 468.524 84.914 468.719 84.613 468.915 84.313 C 470.663 82.432 472.412 80.551 474.722 78.435 C 475.49 77.89 475.698 77.579 475.905 77.268 C 488.653 64.399 501.4 51.53 514.812 38.531 C 518.377 38.402 521.278 38.402 524.179 38.403 C 533.031 47.145 541.883 55.887 550.954 65.203 C 551.476 65.996 551.78 66.215 552.084 66.434 C 552.084 66.434 551.967 66.434 552.07 66.639 C 552.479 67.037 552.787 67.23 553.094 67.424 C 553.094 67.424 552.977 67.442 553.09 67.651 C 553.536 68.041 553.87 68.222 554.205 68.404 Z"/>
    <path fill="#42BC8B" opacity="1.000000" stroke="none" d="M 458.566 292.567 C 459.303 294.698 459.9 296.79 459.905 298.884 C 459.972 324.41 459.951 349.937 459.965 375.925 C 444.611 376.399 429.245 376.414 413.445 376.087 C 412.974 375.32 412.938 374.894 412.902 374.467 C 412.91 372.416 412.918 370.365 412.914 367.638 C 412.903 366.963 412.853 366.49 412.853 366.49 C 412.876 362.453 412.9 358.416 412.921 353.521 C 412.906 351.605 412.893 350.548 412.88 349.49 C 412.911 346.779 412.943 344.067 412.979 340.508 C 413.704 334.609 414.423 329.556 415.143 324.504 C 415.445 323.736 415.747 322.967 416.262 321.74 C 416.686 321.051 416.801 320.78 416.82 320.468 C 417.847 318.435 418.875 316.402 420.215 313.861 C 420.985 312.719 421.442 312.085 421.899 311.45 C 423.823 309.384 425.747 307.318 428.086 304.832 C 428.736 304.121 428.972 303.831 429.207 303.541 C 431.921 301.578 434.634 299.615 437.987 297.529 C 439.418 297.076 440.21 296.747 441.002 296.419 C 446.718 295.122 452.434 293.825 458.566 292.567 Z"/>
    <path fill="#3A8DE5" opacity="1.000000" stroke="none" d="M 148.977 97.486 C 148.975 110.499 148.974 123.511 148.492 136.989 C 126.642 137.446 105.271 137.437 83.909 137.102 C 83.626 136.017 83.334 135.26 83.042 134.504 C 83.105 122.675 83.168 110.846 83.801 98.629 C 84.548 97.933 84.726 97.623 84.904 97.314 C 84.904 97.314 84.884 97.412 85.274 97.425 C 88.929 97.117 92.192 96.557 95.461 96.52 C 105.884 96.403 116.311 96.521 126.735 96.439 C 128.461 96.426 130.182 95.863 131.905 95.553 C 136.95 95.5 141.994 95.447 147.505 95.766 C 148.306 96.586 148.641 97.036 148.977 97.486 Z"/>
    <path fill="#36AB7E" opacity="1.000000" stroke="none" d="M 649.019 249.561 C 650.956 249.577 652.893 249.593 655.242 249.673 C 672.17 258.595 678.581 274.15 681.746 291.138 C 683.426 300.155 683.361 309.666 682.837 318.883 C 682.045 332.851 673.528 341.966 658.026 346.497 C 656.91 346.644 656.493 346.736 655.721 346.77 C 654.207 346.921 653.048 347.129 651.726 346.965 C 651.359 344.632 650.976 342.67 650.974 340.709 C 650.936 312.42 650.989 284.131 650.866 255.843 C 650.857 253.746 649.662 251.655 649.019 249.561 Z"/>
    <path fill="#42BC8B" opacity="1.000000" stroke="none" d="M -66.215 305.385 C -65.404 291.517 -62.125 278.353 -53.805 267.018 C -51.144 263.393 -47.097 260.787 -43.188 257.869 C -42.239 257.703 -41.785 257.383 -41.331 257.063 C -41.331 257.063 -41.229 257.094 -40.858 257.24 C -39.35 256.796 -38.214 256.205 -37.078 255.614 C -36.623 255.548 -36.169 255.482 -35.177 255.731 C -33.803 256.216 -32.966 256.386 -32.107 257.018 C -32.08 287.475 -32.075 317.47 -32.496 347.489 C -34.63 347.526 -36.339 347.538 -38.324 347.523 C -38.786 347.514 -38.97 347.533 -39.155 347.552 C -51.274 345.44 -58.784 337.79 -63.564 326.49 C -63.951 319.753 -64.492 313.603 -65.133 307.463 C -65.209 306.741 -65.841 306.076 -66.215 305.385 Z"/>
    <path fill="#37AC80" opacity="1.000000" stroke="none" d="M -32.069 347.465 C -32.075 317.47 -32.08 287.475 -31.705 256.993 C -27.506 257.436 -23.687 258.367 -19.868 259.297 C -19.868 259.297 -19.961 259.349 -19.858 259.568 C -19.41 259.907 -19.066 260.025 -18.722 260.144 C -18.722 260.144 -18.978 260.23 -18.843 260.459 C -18.363 260.773 -18.018 260.857 -17.673 260.942 C -17.673 260.942 -17.539 260.983 -17.609 261.18 C -17.465 261.366 -17.251 261.356 -17.037 261.346 C -13.089 267.152 -9.14 272.958 -5.306 279.223 C -5.234 279.905 -5.048 280.129 -4.862 280.352 C -4.862 280.352 -4.96 280.416 -4.982 280.78 C -4.961 281.968 -5.103 282.856 -4.845 283.608 C -1.386 293.698 0.524 304.013 -0.01 314.728 C -0.054 315.616 0.546 316.537 0.847 317.442 C -1.895 332.604 -9.969 343.134 -25.861 347.457 C -26.693 347.499 -26.877 347.519 -27.476 347.526 C -29.285 347.497 -30.677 347.481 -32.069 347.465 Z"/>
    <path fill="#3280D3" opacity="1.000000" stroke="none" d="M 350.08 -156.45 C 352.532 -162.29 355.935 -163.09 361.524 -158.68 C 361.688 -158.01 361.904 -157.8 362.12 -157.59 C 362.12 -157.59 362.035 -157.54 362.008 -157.11 C 361.955 -129.63 361.927 -102.58 361.506 -75.486 C 357.73 -75.471 354.349 -75.506 350.944 -76.01 C 350.923 -101.4 350.941 -126.31 350.89 -151.23 C 350.886 -152.97 350.362 -154.71 350.08 -156.45 Z"/>
    <path fill="#2180E1" opacity="1.000000" stroke="none" d="M 266.946 217.024 C 266.49 217.483 266.03 217.47 265.226 217.43 C 264.894 142.67 264.885 67.936 265.001 -6.798 C 265.005 -9.768 266.21 -12.736 267.226 -15.803 C 267.376 -10.454 266.968 -5.006 266.965 0.441 C 266.924 72.478 266.94 144.515 266.946 217.024 Z"/>
    <path fill="#1573E2" opacity="1.000000" stroke="none" d="M 26.966 376.459 C 26.789 376.479 26.612 376.498 26.169 376.487 C 25.91 300.081 25.913 223.705 25.934 147.329 C 25.935 145.176 26.123 143.022 26.516 140.63 C 26.809 140.392 26.909 140.513 26.916 140.977 C 26.958 150.435 26.994 159.429 27.008 168.894 C 26.992 175.408 26.998 181.449 26.982 187.957 C 26.962 198.099 26.965 207.775 26.964 217.92 C 26.975 224.758 26.991 231.126 26.985 237.96 C 26.979 247.761 26.996 257.096 27.001 266.901 C 27.014 273.419 27.039 279.467 27.029 285.979 C 26.985 316.449 26.975 346.454 26.966 376.459 Z"/>
    <path fill="#1573E2" opacity="1.000000" stroke="none" d="M 462.601 90.593 C 462.926 91.131 462.933 91.905 462.642 93.365 C 462.214 95.86 461.973 97.671 461.972 99.482 C 461.94 163.768 461.93 228.054 461.917 292.34 C 461.733 292.349 461.548 292.358 461.088 292.335 C 460.832 227.865 460.833 163.429 460.929 98.993 C 460.933 96.271 461.812 93.551 462.601 90.593 Z"/>
    <path fill="#0A46A9" opacity="1.000000" stroke="none" d="M 439.87 70.869 C 439.873 45.149 439.894 19.827 439.944 -5.495 C 439.948 -7.311 440.163 -9.126 440.582 -11.228 C 440.92 -1.714 440.988 8.087 440.987 17.888 C 440.981 67.757 440.956 117.626 440.888 167.959 C 440.532 166.69 439.968 164.958 439.962 163.224 C 439.888 144.284 439.902 125.343 439.898 105.506 C 439.882 102.891 439.86 101.172 439.837 99.453 C 439.856 97.744 439.874 96.034 439.899 93.429 C 439.889 86.509 439.87 80.484 439.852 74.46 C 439.867 73.396 439.881 72.331 439.87 70.869 Z"/>
    <path fill="#0A46A9" opacity="1.000000" stroke="none" d="M 206.931 216.994 C 206.289 215.666 205.068 213.872 205.059 212.072 C 204.929 184.791 204.958 157.509 204.973 129.746 C 205.638 131.564 206.828 133.86 206.839 136.162 C 206.968 162.949 206.918 189.737 206.931 216.994 Z"/>
    <path fill="#2C64B7" opacity="1.000000" stroke="none" d="M 440.44 288.266 C 439.713 284.439 439.27 280.351 438.964 276.253 C 438.82 274.313 438.938 272.355 438.931 269.937 C 438.93 260.778 438.934 252.086 438.938 242.551 C 438.935 240.963 438.933 240.216 438.93 239.47 C 438.934 233.702 438.863 227.933 438.993 222.168 C 439.027 220.659 439.687 219.164 440.449 217.564 C 440.818 240.977 440.799 264.489 440.44 288.266 Z"/>
    <path fill="#0A46A9" opacity="1.000000" stroke="none" d="M 264.469 217.558 C 263.97 218.153 263.011 219.361 262.043 219.367 C 244.406 219.477 226.768 219.456 209.131 219.389 C 208.474 219.387 207.821 218.643 207.055 217.852 C 225.965 217.511 244.985 217.562 264.469 217.558 Z"/>
    <path fill="#398CE4" opacity="1.000000" stroke="none" d="M 26.817 140.313 C 29.159 139.319 31.482 137.644 33.829 137.61 C 49.87 137.378 65.916 137.49 82.455 137.448 C 82.949 137.405 83.007 137.446 82.899 137.842 C 81.139 138.648 79.49 139.402 77.836 139.413 C 63.62 139.507 49.402 139.411 35.186 139.512 C 32.425 139.532 29.668 140.164 26.909 140.513 C 26.909 140.513 26.809 140.392 26.817 140.313 Z"/>
    <path fill="#42BC8B" opacity="1.000000" stroke="none" d="M 24.506 376.878 C 24.644 377.45 24.316 378.398 23.986 378.4 C 8.155 378.449 -7.676 378.423 -23.507 378.361 C -23.909 378.359 -24.309 377.864 -24.825 377.245 C -8.614 376.865 7.712 376.839 24.506 376.878 Z"/>
    <path fill="#42BC8B" opacity="1.000000" stroke="none" d="M -40.614 376.75 C -41.016 377.35 -41.877 378.376 -42.737 378.376 C -56.287 378.375 -69.836 378.242 -83.681 377.856 C -73.841 377.289 -63.705 376.974 -53.568 376.736 C -49.404 376.638 -45.237 376.706 -40.614 376.75 Z"/>
    <path fill="#0A46A9" opacity="1.000000" stroke="none" d="M 361.899 -75.537 C 361.927 -102.58 361.955 -129.63 361.984 -157.15 C 362.314 -155.58 362.923 -153.53 362.929 -151.48 C 363.008 -125.85 362.999 -100.21 363.005 -74.087 C 362.997 -73.595 362.94 -73.534 362.692 -73.699 C 362.262 -74.421 362.081 -74.979 361.899 -75.537 Z"/>
    <path fill="#0A46A9" opacity="1.000000" stroke="none" d="M 350.017 -155.99 C 350.362 -154.71 350.886 -152.97 350.89 -151.23 C 350.941 -126.31 350.923 -101.4 350.9 -75.725 C 350.589 -74.512 350.299 -74.05 349.963 -73.643 C 349.918 -73.696 349.782 -73.663 349.782 -73.663 C 349.839 -100.95 349.896 -128.25 350.017 -155.99 Z"/>
    <path fill="#4992DF" opacity="1.000000" stroke="none" d="M 652.418 156.487 C 651.81 156.85 650.742 157.419 649.672 157.422 C 627.058 157.472 604.444 157.464 581.83 157.437 C 581.027 157.436 580.225 157.137 579.12 156.661 C 603.198 156.374 627.578 156.401 652.418 156.487 Z"/>
    <path fill="#0A46A9" opacity="1.000000" stroke="none" d="M 577.696 93.555 C 577.869 101.48 578.132 109.405 578.194 117.331 C 578.292 130.069 578.258 142.808 578.4 156.004 C 578.521 156.461 578.186 156.275 577.806 156.345 C 577.426 156.416 577.03 156.386 577.024 155.923 C 577.074 134.819 577.13 114.18 577.314 93.554 C 577.441 93.568 577.696 93.555 577.696 93.555 Z"/>
    <path fill="#0A46A9" opacity="1.000000" stroke="none" d="M 656.075 346.827 C 656.493 346.736 656.91 346.644 657.648 346.551 C 657.956 356.172 657.944 365.795 657.934 375.874 C 657.502 376.343 657.069 376.357 656.294 375.879 C 655.993 365.868 656.034 356.347 656.075 346.827 Z"/>
    <path fill="#36AB7E" opacity="1.000000" stroke="none" d="M 0.931 317.039 C 0.546 316.537 -0.054 315.616 -0.01 314.728 C 0.524 304.013 -1.386 293.698 -4.845 283.608 C -5.103 282.856 -4.961 281.968 -4.963 280.725 C 0.575 291.842 2.08 304.029 0.931 317.039 Z"/>
    <path fill="#42BC8B" opacity="1.000000" stroke="none" d="M 688.823 379.099 C 679.185 379.082 669.328 378.767 659.471 378.443 C 659.33 378.438 659.066 378.273 659.07 378.265 C 659.215 377.891 659.384 377.525 659.745 376.94 C 667.791 376.861 675.645 376.909 683.489 377.212 C 685.212 377.278 686.9 378.248 688.823 379.099 Z"/>
    <path fill="#1573E2" opacity="1.000000" stroke="none" d="M 131.441 95.507 C 130.182 95.863 128.461 96.426 126.735 96.439 C 116.311 96.521 105.884 96.403 95.461 96.52 C 92.192 96.557 88.929 97.117 85.228 97.404 C 86.897 96.727 88.995 95.554 91.107 95.528 C 104.395 95.364 117.686 95.454 131.441 95.507 Z"/>
    <path fill="#0A46A9" opacity="1.000000" stroke="none" d="M 395.907 -47.006 C 395.285 -47.991 394.11 -49.426 394.06 -50.9 C 393.848 -57.18 393.969 -63.472 394.017 -70.242 C 394.676 -68.944 395.747 -67.18 395.812 -65.379 C 396.027 -59.417 395.88 -53.443 395.907 -47.006 Z"/>
    <path fill="#1573E2" opacity="1.000000" stroke="none" d="M 318.926 -46.546 C 318.542 -46.559 318.158 -46.573 317.489 -46.54 C 317.473 -54.096 317.741 -61.698 318.366 -69.513 C 318.723 -69.725 318.937 -69.543 318.947 -69.074 C 318.946 -61.252 318.936 -53.899 318.926 -46.546 Z"/>
    <path fill="#0A46A9" opacity="1.000000" stroke="none" d="M 415.83 -44.918 C 410.75 -44.583 405.438 -44.49 400.129 -44.609 C 398.798 -44.639 397.482 -45.352 396.053 -46.143 C 402.497 -46.102 409.048 -45.671 415.83 -44.918 Z"/>
    <path fill="#36AB7E" opacity="1.000000" stroke="none" d="M -66.551 305.647 C -65.841 306.076 -65.209 306.741 -65.133 307.463 C -64.492 313.603 -63.951 319.753 -63.635 326.15 C -66.744 319.842 -67.616 312.993 -66.551 305.647 Z"/>
    <path fill="#42BC8B" opacity="1.000000" stroke="none" d="M 698.264 408.28 C 698.73 401.4 699.538 394.248 696.974 386.844 C 701.641 393.324 700.535 400.635 698.264 408.28 Z"/>
    <path fill="#1573E2" opacity="1.000000" stroke="none" d="M 319.891 -71.583 C 321.796 -72.265 323.686 -73.478 325.61 -73.536 C 333.356 -73.766 341.112 -73.639 349.323 -73.654 C 349.782 -73.663 349.918 -73.696 349.669 -73.336 C 347.633 -72.823 345.849 -72.611 344.06 -72.53 C 336.032 -72.168 328.004 -71.844 319.955 -71.525 C 319.934 -71.545 319.891 -71.583 319.891 -71.583 Z"/>
    <path fill="#0A46A9" opacity="1.000000" stroke="none" d="M 392.918 -72.004 C 383.425 -71.969 373.707 -72.268 363.491 -72.822 C 362.993 -73.077 362.94 -73.534 362.94 -73.534 C 362.94 -73.534 362.997 -73.595 363.026 -73.626 C 371.035 -73.643 379.017 -73.709 386.995 -73.557 C 388.902 -73.521 390.794 -72.763 392.918 -72.004 Z"/>
    <path fill="#0A46A9" opacity="1.000000" stroke="none" d="M -27.06 347.539 C -26.877 347.519 -26.693 347.499 -26.234 347.503 C -25.98 356.834 -26.001 366.141 -26.047 375.906 C -26.071 376.364 -26.554 376.397 -26.816 375.895 C -27.072 366.109 -27.066 356.824 -27.06 347.539 Z"/>
    <path fill="#0A46A9" opacity="1.000000" stroke="none" d="M -39.123 348.012 C -38.97 347.533 -38.786 347.514 -38.316 347.983 C -38.051 357.767 -38.071 367.062 -38.091 376.357 C -38.091 376.357 -38.577 376.433 -38.823 376.41 C -39.076 367.082 -39.084 357.777 -39.123 348.012 Z"/>
    <path fill="#36AB7E" opacity="1.000000" stroke="none" d="M -20.063 258.998 C -23.687 258.367 -27.506 257.436 -31.727 256.531 C -32.966 256.386 -33.803 256.216 -34.834 255.788 C -30.106 256.586 -25.182 257.643 -20.063 258.998 Z"/>
    <path fill="#0A46A9" opacity="1.000000" stroke="none" d="M 435.836 -18.009 C 430.525 -17.854 424.952 -18.052 419.188 -18.643 C 424.521 -18.811 430.048 -18.586 435.836 -18.009 Z"/>
    <path fill="#1573E2" opacity="1.000000" stroke="none" d="M 523.996 38.091 C 521.278 38.402 518.377 38.402 515.117 38.408 C 517.525 34.63 520.549 34.506 523.996 38.091 Z"/>
    <path fill="#0A46A9" opacity="1.000000" stroke="none" d="M 418.89 -33.013 C 418.212 -35.989 417.585 -39.402 416.987 -43.243 C 417.658 -40.263 418.299 -36.857 418.89 -33.013 Z"/>
    <path fill="#0A46A9" opacity="1.000000" stroke="none" d="M 418.909 -19.988 C 418.688 -21.38 418.494 -23.195 418.57 -25.252 C 418.871 -23.8 418.904 -22.106 418.909 -19.988 Z"/>
    <path fill="#36AB7E" opacity="1.000000" stroke="none" d="M -37.413 255.615 C -38.214 256.205 -39.35 256.796 -40.865 257.293 C -40.078 256.672 -38.914 256.144 -37.413 255.615 Z"/>
    <path fill="#42BC8B" opacity="1.000000" stroke="none" d="M 696.376 412.471 C 696.49 411.286 696.942 410.018 697.726 408.621 C 697.61 409.79 697.161 411.09 696.376 412.471 Z"/>
    <path fill="#2C64B7" opacity="1.000000" stroke="none" d="M 440.937 296.137 C 440.21 296.747 439.418 297.076 438.302 297.387 C 438.442 296.521 438.907 295.674 439.606 294.657 C 440.185 294.943 440.528 295.399 440.937 296.137 Z"/>
    <path fill="#0A46A9" opacity="1.000000" stroke="none" d="M 440.886 177.015 C 440.661 175.934 440.486 174.445 440.573 172.732 C 440.869 173.875 440.902 175.241 440.886 177.015 Z"/>
    <path fill="#1573E2" opacity="1.000000" stroke="none" d="M 577.681 93.232 C 577.696 93.555 577.441 93.568 576.997 93.529 C 576.345 93.478 576.136 93.466 575.927 93.454 C 575.934 92.651 575.942 91.849 575.976 90.645 C 576.556 91.133 577.111 92.021 577.681 93.232 Z"/>
    <path fill="#1573E2" opacity="1.000000" stroke="none" d="M 149.088 97.247 C 148.641 97.036 148.306 96.586 147.968 95.844 C 148.521 95.658 149.078 95.765 149.813 96.1 C 149.727 96.554 149.463 96.781 149.088 97.247 Z"/>
    <path fill="#1573E2" opacity="1.000000" stroke="none" d="M 82.996 134.87 C 83.334 135.26 83.626 136.017 83.686 137.112 C 83.454 137.451 83.007 137.446 83.007 137.446 C 83.007 137.446 82.949 137.405 82.92 137.426 C 82.91 136.71 82.93 135.973 82.996 134.87 Z"/>
    <path fill="#42BC8B" opacity="1.000000" stroke="none" d="M 690.865 380.191 C 690.465 380.249 689.865 380.074 689.115 379.616 C 689.532 379.54 690.098 379.75 690.865 380.191 Z"/>
    <path fill="#0A46A9" opacity="1.000000" stroke="none" d="M 440.155 -13.911 C 439.83 -14.072 439.42 -14.539 438.997 -15.345 C 439.346 -15.195 439.709 -14.706 440.155 -13.911 Z"/>
    <path fill="#1573E2" opacity="1.000000" stroke="none" d="M 318.613 -69.812 C 318.788 -70.388 319.075 -70.877 319.626 -71.474 C 319.891 -71.583 319.934 -71.545 319.931 -71.228 C 319.598 -70.455 319.268 -69.999 318.937 -69.543 C 318.937 -69.543 318.723 -69.725 318.613 -69.812 Z"/>
    <path fill="#0A46A9" opacity="1.000000" stroke="none" d="M 437.909 -16.836 C 437.47 -16.774 436.859 -16.976 436.132 -17.494 C 436.59 -17.573 437.163 -17.336 437.909 -16.836 Z"/>
    <path fill="#2180E1" opacity="1.000000" stroke="none" d="M 270.666 -17.798 C 270.449 -17.294 269.924 -16.968 269.069 -16.709 C 269.279 -17.176 269.819 -17.577 270.666 -17.798 Z"/>
    <path fill="#42BC8B" opacity="1.000000" stroke="none" d="M 695.983 414.092 C 695.775 413.84 695.698 413.283 695.874 412.626 C 696.122 412.947 696.117 413.367 695.983 414.092 Z"/>
    <path fill="#0A46A9" opacity="1.000000" stroke="none" d="M 201.992 127.027 C 201.514 127.067 200.866 126.813 200.099 126.204 C 200.594 126.143 201.208 126.438 201.992 127.027 Z"/>
    <path fill="#36AB7E" opacity="1.000000" stroke="none" d="M -41.626 257.094 C -41.785 257.383 -42.239 257.703 -42.856 257.794 C -42.653 257.418 -42.286 257.271 -41.626 257.094 Z"/>
    <path fill="#0A46A9" opacity="1.000000" stroke="none" d="M 203.958 128.147 C 203.514 128.221 202.888 128.031 202.132 127.524 C 202.594 127.433 203.186 127.658 203.958 128.147 Z"/>
    <path fill="#42BC8B" opacity="1.000000" stroke="none" d="M 694.024 383.126 C 693.758 383.233 693.47 383.042 693.08 382.607 C 693.32 382.518 693.661 382.673 694.024 383.126 Z"/>
    <path fill="#36AB7E" opacity="1.000000" stroke="none" d="M -17.774 260.721 C -18.018 260.857 -18.363 260.773 -18.727 260.39 C -18.406 260.123 -18.117 260.259 -17.774 260.721 Z"/>
    <path fill="#36AB7E" opacity="1.000000" stroke="none" d="M -18.839 259.9 C -19.066 260.025 -19.41 259.907 -19.848 259.516 C -19.613 259.381 -19.284 259.519 -18.839 259.9 Z"/>
    <path fill="#0A46A9" opacity="1.000000" stroke="none" d="M 416.991 -43.836 C 416.779 -43.764 416.472 -43.952 416.071 -44.4 C 416.283 -44.472 416.589 -44.284 416.991 -43.836 Z"/>
    <path fill="#0A46A9" opacity="1.000000" stroke="none" d="M 394.065 -70.882 C 393.834 -70.804 393.509 -70.999 393.101 -71.478 C 393.335 -71.56 393.653 -71.358 394.065 -70.882 Z"/>
    <path fill="#0A46A9" opacity="1.000000" stroke="none" d="M 362.073 -157.82 C 361.904 -157.8 361.688 -158.01 361.624 -158.34 C 361.777 -158.46 362.026 -158.06 362.073 -157.82 Z"/>
    <path fill="#42BC8B" opacity="1.000000" stroke="none" d="M 693.001 382.139 C 692.741 382.189 692.454 381.94 692.094 381.405 C 692.339 381.36 692.656 381.6 693.001 382.139 Z"/>
    <path fill="#36AB7E" opacity="1.000000" stroke="none" d="M -4.883 280.121 C -5.048 280.129 -5.234 279.905 -5.259 279.575 C -5.098 279.469 -4.903 279.89 -4.883 280.121 Z"/>
    <path fill="#42BC8B" opacity="1.000000" stroke="none" d="M 695.022 384.128 C 694.764 384.235 694.474 384.045 694.082 383.612 C 694.316 383.523 694.653 383.678 695.022 384.128 Z"/>
    <path fill="#42BC8B" opacity="1.000000" stroke="none" d="M 696.075 385.128 C 695.875 385.221 695.547 385.051 695.094 384.629 C 695.295 384.54 695.622 384.702 696.075 385.128 Z"/>
    <path fill="#36AB7E" opacity="1.000000" stroke="none" d="M -17.098 261.229 C -17.251 261.356 -17.465 261.366 -17.543 261.202 C -17.407 261.029 -17.159 261.113 -17.098 261.229 Z"/>
    <path fill="#1573E2" opacity="1.000000" stroke="none" d="M 554.066 68.153 C 553.87 68.222 553.536 68.041 553.086 67.592 C 553.289 67.517 553.609 67.71 554.066 68.153 Z"/>
    <path fill="#1573E2" opacity="1.000000" stroke="none" d="M 84.641 97.406 C 84.726 97.623 84.548 97.933 84.117 98.344 C 84.036 98.131 84.207 97.814 84.641 97.406 Z"/>
    <path fill="#1573E2" opacity="1.000000" stroke="none" d="M 467.67 85.451 C 467.711 85.641 467.497 85.933 467.024 86.326 C 466.982 86.136 467.198 85.845 467.67 85.451 Z"/>
    <path fill="#1573E2" opacity="1.000000" stroke="none" d="M 468.67 84.433 C 468.719 84.613 468.524 84.914 468.08 85.33 C 468.03 85.149 468.227 84.851 468.67 84.433 Z"/>
    <path fill="#2180E1" opacity="1.000000" stroke="none" d="M 268.477 -16.763 C 268.598 -16.483 268.428 -16.15 267.966 -15.77 C 267.844 -16.052 268.014 -16.382 268.477 -16.763 Z"/>
    <path fill="#1573E2" opacity="1.000000" stroke="none" d="M 551.989 66.166 C 551.78 66.215 551.476 65.996 551.084 65.503 C 551.294 65.452 551.594 65.675 551.989 66.166 Z"/>
    <path fill="#1573E2" opacity="1.000000" stroke="none" d="M 475.662 77.406 C 475.698 77.579 475.49 77.89 475.02 78.314 C 474.978 78.133 475.199 77.838 475.662 77.406 Z"/>
    <path fill="#1573E2" opacity="1.000000" stroke="none" d="M 552.998 67.162 C 552.787 67.23 552.479 67.037 552.075 66.581 C 552.287 66.512 552.595 66.706 552.998 67.162 Z"/>
    <path fill="#4E95EA" opacity="1.000000" stroke="none" d="M 462.343 292.392 C 461.93 228.054 461.94 163.768 461.972 99.482 C 461.973 97.671 462.214 95.86 462.638 93.752 C 488.625 93.457 514.318 93.46 540.482 93.931 C 540.952 105.052 540.95 115.704 540.953 126.356 C 540.979 209.072 541.006 291.788 541.013 374.81 C 541 375.522 541.008 375.929 541.015 376.336 C 530.391 376.369 519.767 376.402 508.709 376.414 C 508.849 360.146 510.482 343.826 506.921 327.747 C 502.888 309.537 487.782 296.048 469.163 293.369 C 467.031 293.062 464.9 292.752 462.343 292.392 Z"/>
    <path fill="#E7F0F6" opacity="1.000000" stroke="none" d="M 148.987 269.667 C 161.056 255.948 173.123 242.228 185.195 228.512 C 191.424 221.434 195.15 221.375 201.422 228.417 C 217.674 246.662 233.889 264.939 250.092 283.227 C 251.073 284.334 251.819 285.649 252.777 287.642 C 252.871 317.758 252.861 347.099 252.852 376.441 C 252.432 376.567 252.012 376.694 250.845 376.855 C 238.702 376.928 227.306 376.966 215.91 377.003 C 215.676 376.882 215.441 376.76 214.863 376.045 C 214.415 358.493 214.31 341.535 214.331 324.221 C 213.655 321.351 212.854 318.837 212.042 316.37 C 212.031 316.418 212.128 316.41 212.078 316.104 C 211.685 315.3 211.342 314.802 210.962 314.09 C 210.804 313.583 210.586 313.409 210.127 313.056 C 209.006 311.878 208.03 310.998 206.961 309.923 C 206.651 309.514 206.39 309.409 205.889 309.178 C 205.127 308.721 204.561 308.502 203.993 308.33 C 203.99 308.378 204.083 308.354 203.868 308.084 C 202.758 307.654 201.864 307.493 200.973 307.373 C 200.975 307.413 201.053 307.389 200.836 307.069 C 194.244 304.646 188.259 305.25 182.817 309.335 C 182.863 309.353 182.848 309.256 182.574 309.331 C 182.1 309.701 181.901 309.996 181.769 310.288 C 181.835 310.286 181.774 310.166 181.477 310.208 C 180.749 310.646 180.319 311.043 179.655 311.539 C 179.26 311.927 179.1 312.217 178.681 312.662 C 178.232 313.362 178.042 313.907 177.892 314.453 C 177.931 314.453 177.926 314.374 177.632 314.389 C 177.172 314.751 177.005 315.098 176.88 315.444 C 176.92 315.443 176.909 315.362 176.658 315.542 C 176.209 316.3 176.012 316.878 175.862 317.456 C 175.909 317.455 175.898 317.361 175.629 317.556 C 174.866 318.991 174.372 320.231 173.487 321.565 C 172.714 323.333 172.01 325.006 172.001 326.683 C 171.914 341.46 171.856 356.24 172.02 371.017 C 172.058 374.512 170.949 375.602 167.477 375.54 C 157.02 375.354 146.556 375.48 136.016 375.021 C 135.987 345.183 136.037 315.81 136.434 286.373 C 137.148 285.283 137.514 284.256 138.001 282.924 C 141.743 278.301 145.365 273.984 148.987 269.667 Z"/>
    <path fill="#3280D3" opacity="1.000000" stroke="none" d="M 541.033 374.504 C 541.006 291.788 540.979 209.072 540.953 126.356 C 540.95 115.704 540.952 105.052 540.951 93.932 C 552.298 93.463 563.646 93.462 575.46 93.458 C 576.136 93.466 576.345 93.478 576.87 93.515 C 577.13 114.18 577.074 134.819 576.995 156.398 C 576.972 229.539 576.972 301.74 576.972 372.997 C 574.708 374.506 573.338 375.419 571.967 376.333 C 570.564 376.359 569.161 376.385 567.245 375.993 C 563.254 375.31 559.772 374.834 556.296 374.867 C 554.516 374.883 552.744 375.81 550.969 376.325 C 548.583 376.359 546.197 376.393 543.33 376.089 C 542.243 375.336 541.638 374.92 541.033 374.504 Z"/>
    <path fill="#4E95EA" opacity="1.000000" stroke="none" d="M 27.218 376.461 C 26.975 346.454 26.985 316.449 27.485 285.962 C 61.108 285.476 94.24 285.462 127.372 285.476 C 133.493 285.478 133.941 285.955 133.943 291.964 C 133.951 317.77 133.833 343.578 134.054 369.382 C 134.094 374.057 133.024 375.617 128.077 375.582 C 96.611 375.357 65.143 375.452 33.676 375.509 C 31.775 375.512 29.874 376.1 27.974 376.416 C 27.806 376.432 27.638 376.448 27.218 376.461 Z"/>
    <path fill="#4E95EA" opacity="1.000000" stroke="none" d="M 381.074 370.987 C 381.092 372.21 381.065 372.968 381.03 374.414 C 381.021 375.522 381.021 375.942 381.021 376.361 C 380.829 376.368 380.636 376.375 379.861 376.097 C 377.463 375.697 375.649 375.485 373.835 375.484 C 333.885 375.462 293.936 375.463 253.97 374.992 C 253.993 345.555 254.032 316.587 254.071 287.618 C 296.044 287.577 338.018 287.536 380.457 287.51 C 380.959 315.19 380.994 342.855 381.074 370.987 M 308.92 351.787 C 309.229 351.211 309.805 350.637 309.809 350.059 C 309.892 340.235 310.094 330.402 309.723 320.592 C 309.669 319.148 306.918 316.769 305.247 316.612 C 299.798 316.1 294.272 316.399 288.775 316.421 C 285.483 316.435 283.936 318.186 283.94 321.428 C 283.949 330.422 283.774 339.423 284.108 348.405 C 284.168 350.019 286.277 352.877 287.498 352.908 C 294.396 353.087 301.311 352.579 308.92 351.787 M 352.073 316.418 C 346.76 316.414 341.446 316.416 336.132 316.405 C 332.372 316.397 330.056 318.078 330.022 322 C 329.947 330.634 329.68 339.289 330.237 347.888 C 330.364 349.839 333.34 352.902 335.327 353.185 C 340.533 353.926 345.926 353.595 351.226 353.328 C 354.123 353.182 356.08 351.666 356.035 348.207 C 355.917 339.075 356.13 329.938 355.864 320.813 C 355.82 319.338 353.993 317.915 352.073 316.418 Z"/>
    <path fill="#3770C6" opacity="1.000000" stroke="none" d="M 206.085 309.415 C 206.39 309.409 206.651 309.514 206.95 310.309 C 208.113 311.71 209.193 312.532 210.273 313.353 C 210.586 313.409 210.804 313.583 210.969 314.419 C 211.384 315.444 211.756 315.927 212.128 316.41 C 212.128 316.41 212.031 316.418 212.005 316.79 C 212.313 319.606 212.646 322.051 212.981 324.961 C 212.997 342.388 213.012 359.348 213.026 376.308 C 200.631 376.353 188.235 376.398 175.389 375.946 C 175.259 356.086 175.578 336.724 175.898 317.361 C 175.898 317.361 175.909 317.455 176.144 317.307 C 176.556 316.561 176.732 315.961 176.909 315.362 C 176.909 315.362 176.92 315.443 177.129 315.345 C 177.533 314.956 177.73 314.665 177.926 314.374 C 177.926 314.374 177.931 314.453 178.151 314.307 C 178.561 313.611 178.751 313.059 178.94 312.507 C 179.1 312.217 179.26 311.927 179.976 311.521 C 180.946 310.991 181.36 310.579 181.774 310.166 C 181.774 310.166 181.835 310.286 182.05 310.237 C 182.459 309.877 182.654 309.567 182.848 309.256 C 182.848 309.256 182.863 309.353 183.232 309.382 C 189.418 308.737 195.236 308.063 201.053 307.389 C 201.053 307.389 200.975 307.413 201.158 307.675 C 202.255 308.076 203.169 308.215 204.083 308.354 C 204.083 308.354 203.99 308.378 204.13 308.627 C 204.875 309.056 205.48 309.236 206.085 309.415 Z"/>
    <path fill="#3A8DE5" opacity="1.000000" stroke="none" d="M 28.439 376.439 C 29.874 376.1 31.775 375.512 33.676 375.509 C 65.143 375.452 96.611 375.357 128.077 375.582 C 133.024 375.617 134.094 374.057 134.054 369.382 C 133.833 343.578 133.951 317.77 133.943 291.964 C 133.941 285.955 133.493 285.478 127.372 285.476 C 94.24 285.462 61.108 285.476 27.52 285.498 C 27.039 279.467 27.014 273.419 27.462 266.914 C 68.25 266.452 108.565 266.448 148.88 266.443 C 148.897 267.25 148.915 268.056 148.959 269.264 C 145.365 273.984 141.743 278.301 137.732 283.104 C 136.924 284.539 136.505 285.488 136.087 286.437 C 136.037 315.81 135.987 345.183 135.954 375.27 C 135.948 376.153 135.926 376.322 135.925 376.494 C 135.946 376.495 135.933 376.538 135.933 376.538 C 100.257 376.513 64.58 376.488 28.439 376.439 Z"/>
    <path fill="#2C64B7" opacity="1.000000" stroke="none" d="M -37.63 376.393 C -38.071 367.062 -38.051 357.767 -38.039 348.011 C -36.339 347.538 -34.63 347.526 -32.496 347.489 C -30.677 347.481 -29.285 347.497 -27.476 347.526 C -27.066 356.824 -27.072 366.109 -27.053 375.849 C -30.409 376.345 -33.79 376.387 -37.63 376.393 Z"/>
    <path fill="#2E66B9" opacity="1.000000" stroke="none" d="M 655.721 346.77 C 656.034 356.347 655.993 365.868 655.971 375.843 C 653.264 376.332 650.539 376.365 647.242 376.101 C 646.12 375.033 645.572 374.262 645.023 373.491 C 644.999 366.45 644.976 359.409 645.222 351.719 C 645.354 350.22 645.217 349.369 645.08 348.517 C 645.059 348.339 645.038 348.161 645.437 347.699 C 647.867 347.389 649.878 347.363 651.888 347.337 C 653.048 347.129 654.207 346.921 655.721 346.77 Z"/>
    <path fill="#3770C6" opacity="1.000000" stroke="none" d="M 572.394 376.366 C 573.338 375.419 574.708 374.506 576.972 372.997 C 576.972 301.74 576.972 229.539 577.001 156.862 C 577.03 156.386 577.426 156.416 577.623 156.403 C 577.891 158.547 578.023 160.704 578.023 162.862 C 578.032 233.73 578.029 304.598 578.008 375.926 C 576.267 376.391 574.544 376.395 572.394 376.366 Z"/>
    <path fill="#3A8DE5" opacity="1.000000" stroke="none" d="M 253.986 375.46 C 293.936 375.463 333.885 375.462 373.835 375.484 C 375.649 375.485 377.463 375.697 379.572 376.09 C 338.196 376.411 296.526 376.453 254.401 376.222 C 253.947 375.95 253.986 375.46 253.986 375.46 Z"/>
    <path fill="#0A46A9" opacity="1.000000" stroke="none" d="M 213.265 376.335 C 213.012 359.348 212.997 342.388 213.186 324.957 C 213.659 324.54 213.931 324.571 214.206 324.576 C 214.31 341.535 214.415 358.493 214.489 375.912 C 214.46 376.371 213.983 376.298 213.983 376.298 C 213.983 376.298 213.505 376.361 213.265 376.335 Z"/>
    <path fill="#2180E1" opacity="1.000000" stroke="none" d="M 253.97 374.992 C 253.986 375.46 253.947 375.95 253.932 376.194 C 253.739 376.451 253.561 376.463 253.118 376.457 C 252.861 347.099 252.871 317.758 252.916 287.952 C 253.138 287.504 253.325 287.52 253.792 287.577 C 254.032 316.587 253.993 345.555 253.97 374.992 Z"/>
    <path fill="#42BC8B" opacity="1.000000" stroke="none" d="M 172.867 376.817 C 171.999 377.359 171.135 378.366 170.262 378.374 C 159.568 378.476 148.873 378.453 138.178 378.378 C 137.51 378.373 136.847 377.673 136.058 376.917 C 135.933 376.538 135.946 376.495 136.387 376.601 C 148.88 376.584 160.933 376.463 172.9 376.446 C 172.815 376.551 172.867 376.817 172.867 376.817 Z"/>
    <path fill="#42BC8B" opacity="1.000000" stroke="none" d="M 215.805 377.279 C 227.306 376.966 238.702 376.928 250.559 377.02 C 250.626 377.586 250.232 378.402 249.834 378.404 C 238.739 378.47 227.643 378.461 216.547 378.414 C 216.264 378.413 215.983 377.854 215.805 377.279 Z"/>
    <path fill="#0A46A9" opacity="1.000000" stroke="none" d="M 175.629 317.556 C 175.578 336.724 175.259 356.086 174.919 375.909 C 174.727 376.39 174.555 376.411 174.094 376.181 C 173.804 375.93 173.61 375.476 173.694 375.013 C 173.812 356.857 173.845 339.164 173.879 321.472 C 174.372 320.231 174.866 318.991 175.629 317.556 Z"/>
    <path fill="#3770C6" opacity="1.000000" stroke="none" d="M 551.433 376.362 C 552.744 375.81 554.516 374.883 556.296 374.867 C 559.772 374.834 563.254 375.31 566.826 375.953 C 561.911 376.353 556.903 376.376 551.433 376.362 Z"/>
    <path fill="#2E66B9" opacity="1.000000" stroke="none" d="M 412.474 374.466 C 412.938 374.894 412.974 375.32 412.976 376.065 C 410.574 376.395 408.206 376.407 405.396 376.381 C 407.319 375.716 409.682 375.09 412.474 374.466 Z"/>
    <path fill="#3770C6" opacity="1.000000" stroke="none" d="M 541.013 374.81 C 541.638 374.92 542.243 375.336 542.884 376.053 C 542.496 376.372 542.071 376.389 541.331 376.371 C 541.008 375.929 541 375.522 541.013 374.81 Z"/>
    <path fill="#2E66B9" opacity="1.000000" stroke="none" d="M 381.339 376.402 C 381.021 375.942 381.021 375.522 381.068 374.792 C 381.699 374.913 382.282 375.345 382.901 376.077 C 382.511 376.398 382.085 376.42 381.339 376.402 Z"/>
    <path fill="#2C64B7" opacity="1.000000" stroke="none" d="M 644.986 373.847 C 645.572 374.262 646.12 375.033 646.789 376.067 C 646.475 376.362 646.041 376.394 645.282 376.385 C 644.954 375.63 644.951 374.917 644.986 373.847 Z"/>
    <path fill="#2E66B9" opacity="1.000000" stroke="none" d="M 386.301 376.389 C 386.527 376.217 387.073 376.079 387.762 376.147 C 387.478 376.377 387.05 376.4 386.301 376.389 Z"/>
    <path fill="#DCF1FC" opacity="1.000000" stroke="none" d="M 173.61 375.476 C 173.61 375.476 173.804 375.93 173.834 376.174 C 173.686 376.454 173.507 376.49 173.098 376.671 C 172.867 376.817 172.815 376.551 172.943 376.263 C 173.176 375.729 173.356 375.562 173.61 375.476 Z"/>
    <path fill="#3383D9" opacity="1.000000" stroke="none" d="M 318.947 -69.074 C 319.268 -69.999 319.598 -70.455 319.952 -71.208 C 328.004 -71.844 336.032 -72.168 344.06 -72.53 C 345.849 -72.611 347.633 -72.823 349.714 -73.282 C 350.299 -74.05 350.589 -74.512 350.923 -75.257 C 354.349 -75.506 357.73 -75.471 361.506 -75.486 C 362.081 -74.979 362.262 -74.421 362.692 -73.699 C 362.94 -73.534 362.993 -73.077 363.031 -72.851 C 363.035 -65.511 362.823 -58.392 363.042 -51.287 C 363.153 -47.676 362.177 -46.012 358.345 -46.461 C 356.223 -46.709 354.049 -46.513 351.439 -46.523 C 340.609 -46.534 330.238 -46.538 319.397 -46.544 C 318.936 -53.899 318.946 -61.252 318.947 -69.074 Z"/>
    <path fill="#89C5F9" opacity="1.000000" stroke="none" d="M 331.181 71.561 C 331.641 81.018 332.194 90.159 331.846 99.266 C 331.678 103.687 327.408 103.321 324.049 103.424 C 320.469 103.534 317.299 102.377 317.107 98.596 C 316.704 90.622 316.653 82.591 317.213 74.637 C 317.34 72.836 320.356 70.213 322.395 69.826 C 325.047 69.324 328.051 70.677 331.181 71.561 Z"/>
    <path fill="#89C5F9" opacity="1.000000" stroke="none" d="M 332.051 132.615 C 332.059 139.244 331.972 145.395 332.108 151.541 C 332.216 156.425 329.157 157.294 325.29 157.374 C 319.926 157.484 317.134 155.728 317.032 151.699 C 316.856 144.723 316.936 137.74 316.968 130.761 C 316.995 125.176 318.797 123.488 324.553 123.49 C 330.602 123.492 331.953 124.779 332.05 130.638 C 332.059 131.136 332.051 131.635 332.051 132.615 Z"/>
    <path fill="#89C5F9" opacity="1.000000" stroke="none" d="M 285.861 85.467 C 285.858 81.817 285.968 78.657 285.826 75.509 C 285.61 70.712 288.543 69.579 292.482 69.517 C 296.518 69.453 300.631 69.88 300.861 75.011 C 301.203 82.633 301.135 90.287 300.881 97.916 C 300.728 102.501 297.149 103.336 293.405 103.31 C 289.697 103.285 286.203 102.534 285.919 97.913 C 285.676 93.944 285.864 89.947 285.861 85.467 Z"/>
    <path fill="#89C5F9" opacity="1.000000" stroke="none" d="M 287.071 124.832 C 289.398 123.917 291.402 122.95 293.475 122.764 C 298.326 122.328 300.907 124.842 300.945 129.721 C 300.995 136.365 301.008 143.01 300.947 149.654 C 300.901 154.749 298.973 156.417 293.391 156.421 C 287.43 156.425 285.909 155.133 285.871 149.831 C 285.822 143.021 285.803 136.209 285.895 129.4 C 285.914 127.974 286.469 126.556 287.071 124.832 Z"/>
    <path fill="#89C5F9" opacity="1.000000" stroke="none" d="M 299.256 17.206 C 300.022 18.866 300.86 20.221 300.887 21.591 C 301.028 28.718 300.912 35.849 300.987 42.978 C 301.047 48.712 297.113 48.553 293.123 48.596 C 289.105 48.638 285.737 48.177 285.832 42.896 C 285.942 36.764 285.848 30.628 285.841 24.493 C 285.83 15.59 290.633 12.812 299.256 17.206 Z"/>
    <path fill="#89C5F9" opacity="1.000000" stroke="none" d="M 331.27 46.502 C 327.348 47.325 323.666 48.233 320.054 48.011 C 318.924 47.942 317.177 44.869 317.092 43.104 C 316.748 35.956 316.85 28.781 316.968 21.618 C 317.046 16.914 319.312 15.37 325.168 15.44 C 329.399 15.491 332.278 16.704 332.089 21.739 C 331.784 29.871 331.71 38.013 331.27 46.502 Z"/>
    <path fill="#2C64B7" opacity="1.000000" stroke="none" d="M 350.951 138.927 C 351.154 141.613 351.346 144.753 351.25 148.172 C 350.955 145.427 350.947 142.403 350.951 138.927 Z"/>
    <path fill="#4E95EA" opacity="1.000000" stroke="none" d="M 26.969 217.45 C 26.965 207.775 26.962 198.099 27.444 187.946 C 65.986 187.465 104.042 187.478 142.099 187.417 C 144.368 187.413 146.636 186.818 148.905 186.498 C 148.919 196.504 148.934 206.509 148.465 216.988 C 107.644 217.458 67.306 217.454 26.969 217.45 Z"/>
    <path fill="#4E95EA" opacity="1.000000" stroke="none" d="M 148.903 265.977 C 108.565 266.448 68.25 266.452 27.474 266.444 C 26.996 257.096 26.979 247.761 27.447 237.947 C 68.252 237.141 108.574 236.813 148.896 236.485 C 148.906 246.16 148.916 255.835 148.903 265.977 Z"/>
    <path fill="#4E95EA" opacity="1.000000" stroke="none" d="M 82.899 137.842 C 83.007 137.446 83.454 137.451 83.677 137.44 C 105.271 137.437 126.642 137.446 148.482 137.457 C 148.956 147.147 148.961 156.834 148.48 166.993 C 107.673 167.784 67.352 168.103 27.03 168.423 C 26.994 159.429 26.958 150.435 26.916 140.977 C 29.668 140.164 32.425 139.532 35.186 139.512 C 49.402 139.411 63.62 139.507 77.836 139.413 C 79.49 139.402 81.139 138.648 82.899 137.842 Z"/>
    <path fill="#3A8DE5" opacity="1.000000" stroke="none" d="M 27.008 168.894 C 67.352 168.103 107.673 167.784 148.462 167.461 C 148.935 173.489 148.94 179.522 148.925 186.026 C 146.636 186.818 144.368 187.413 142.099 187.417 C 104.042 187.478 65.986 187.465 27.467 187.48 C 26.998 181.449 26.992 175.408 27.008 168.894 Z"/>
    <path fill="#3A8DE5" opacity="1.000000" stroke="none" d="M 148.918 236.015 C 108.574 236.813 68.252 237.141 27.469 237.481 C 26.991 231.126 26.975 224.758 26.964 217.92 C 67.306 217.454 107.644 217.458 148.446 217.456 C 148.921 223.481 148.931 229.513 148.918 236.015 Z"/>
    <path fill="#4992DF" opacity="1.000000" stroke="none" d="M 381.927 123.577 C 383.037 124.454 384.148 125.332 385.569 126.795 C 385.909 129.407 385.938 131.433 385.967 133.46 C 385.957 134.85 385.946 136.241 385.937 138.515 C 385.936 141.356 386.159 143.347 385.882 145.266 C 385.344 149.003 384.525 152.699 383.823 156.412 C 383.823 156.412 383.379 156.427 382.929 156.546 C 382.198 156.862 382.008 157.126 381.911 157.457 C 379.171 157.478 376.43 157.499 373.227 157.253 C 372.505 156.768 372.244 156.548 371.984 156.329 C 371.307 152.999 370.629 149.669 369.951 145.432 C 369.942 139.506 369.933 134.486 369.924 129.466 C 371.057 127.58 372.189 125.694 374.068 123.655 C 377.185 123.526 379.556 123.551 381.927 123.577 Z"/>
    <path fill="#4992DF" opacity="1.000000" stroke="none" d="M 417.954 152.456 C 416.506 153.771 415.057 155.085 412.847 156.43 C 410.374 156.47 408.661 156.481 406.949 156.491 C 406.517 156.479 406.086 156.467 405.215 156.236 C 404.577 155.731 404.307 155.562 403.963 155.511 C 403.37 155.006 402.776 154.501 402.063 153.259 C 401.961 143.84 401.978 135.159 401.994 126.478 C 402.891 125.686 403.788 124.894 405.278 123.805 C 409.561 124.166 413.25 124.824 416.938 125.482 C 417.018 125.79 417.178 126.049 417.648 126.837 C 417.905 135.763 417.93 144.11 417.954 152.456 Z"/>
    <path fill="#4992DF" opacity="1.000000" stroke="none" d="M 403.97 101.426 C 403.301 99.788 402.073 98.171 402.024 96.52 C 401.811 89.208 401.96 81.885 401.928 74.567 C 401.912 71.017 403.703 69.399 407.147 69.397 C 408.977 69.396 410.998 68.908 412.586 69.528 C 414.476 70.265 417.375 71.881 417.448 73.243 C 417.898 81.687 417.709 90.167 417.618 98.633 C 417.61 99.323 416.752 100.003 416.091 101.009 C 415.353 101.504 414.813 101.677 413.663 102.103 C 410.025 102.043 406.999 101.729 403.972 101.415 C 403.972 101.415 403.956 101.43 403.97 101.426 Z"/>
    <path fill="#4992DF" opacity="1.000000" stroke="none" d="M 370.298 99.607 C 370.034 91.633 369.921 83.834 369.986 76.037 C 370.027 71.02 372.162 69.42 378.264 69.45 C 383.879 69.477 385.848 71.137 385.914 76.151 C 385.99 81.958 385.931 87.767 385.929 93.574 C 385.927 100.761 384.376 102.359 377.313 102.444 C 376.483 102.454 375.654 102.452 374.386 102.474 C 373.947 102.493 373.494 102.457 373.141 102.235 C 372.583 101.732 372.308 101.566 371.964 101.513 C 371.484 100.936 371.004 100.359 370.298 99.607 Z"/>
    <path fill="#2C64B7" opacity="1.000000" stroke="none" d="M 401.609 126.518 C 401.978 135.159 401.961 143.84 401.938 152.989 C 395.884 147.431 398 139.923 398.445 132.84 C 398.58 130.696 400.254 128.649 401.609 126.518 Z"/>
    <path fill="#2C64B7" opacity="1.000000" stroke="none" d="M 439.519 74.518 C 439.87 80.484 439.889 86.509 439.88 93.002 C 437.967 93.383 436.081 93.294 432.998 93.15 C 436.738 89.27 436.845 86.465 434.654 82.616 C 433.872 81.241 437.546 77.329 439.519 74.518 Z"/>
    <path fill="#2C64B7" opacity="1.000000" stroke="none" d="M 384.224 156.424 C 384.525 152.699 385.344 149.003 385.882 145.266 C 386.159 143.347 385.936 141.356 385.953 138.932 C 391.429 141.298 388.477 146.329 388.719 150.325 C 388.858 152.612 388.741 156.278 384.224 156.424 Z"/>
    <path fill="#2C64B7" opacity="1.000000" stroke="none" d="M 416.936 125.103 C 413.25 124.824 409.561 124.166 405.43 123.545 C 405.209 120.965 406.219 119.255 409.256 119.444 C 412.916 119.671 415.936 120.688 416.936 125.103 Z"/>
    <path fill="#2C64B7" opacity="1.000000" stroke="none" d="M 439.477 99.45 C 439.86 101.172 439.882 102.891 439.876 105.038 C 436.022 105.046 435.39 102.352 435.093 98.831 C 436.664 99.071 437.89 99.259 439.477 99.45 Z"/>
    <path fill="#2C64B7" opacity="1.000000" stroke="none" d="M 418.25 152.163 C 417.93 144.11 417.905 135.763 417.85 126.949 C 418.196 128.835 418.873 131.185 418.889 133.539 C 418.93 139.648 418.68 145.759 418.25 152.163 Z"/>
    <path fill="#2C64B7" opacity="1.000000" stroke="none" d="M 369.549 129.542 C 369.933 134.486 369.942 139.506 369.935 144.993 C 369.605 145.377 369.013 145.293 369.013 145.213 C 369.036 140.015 369.107 134.817 369.549 129.542 Z"/>
    <path fill="#2C64B7" opacity="1.000000" stroke="none" d="M 386.337 133.414 C 385.938 131.433 385.909 129.407 385.835 126.951 C 389.889 128.403 390.117 130.103 386.337 133.414 Z"/>
    <path fill="#2C64B7" opacity="1.000000" stroke="none" d="M 407.003 156.834 C 408.661 156.481 410.374 156.47 412.513 156.476 C 411.486 161.062 409.348 159.775 407.003 156.834 Z"/>
    <path fill="#2C64B7" opacity="1.000000" stroke="none" d="M 404.044 101.809 C 406.999 101.729 410.025 102.043 413.48 102.323 C 410.644 102.26 407.38 102.232 404.044 101.809 Z"/>
    <path fill="#2C64B7" opacity="1.000000" stroke="none" d="M 381.685 123.263 C 379.556 123.551 377.185 123.526 374.368 123.5 C 376.429 123.316 378.936 123.133 381.685 123.263 Z"/>
    <path fill="#2F6ABB" opacity="1.000000" stroke="none" d="M 438.597 239.518 C 438.933 240.216 438.935 240.963 438.934 242.082 C 438.708 241.492 438.487 240.529 438.597 239.518 Z"/>
    <path fill="#2C64B7" opacity="1.000000" stroke="none" d="M 404.077 155.726 C 404.307 155.562 404.577 155.731 404.891 156.233 C 404.675 156.375 404.403 156.206 404.077 155.726 Z"/>
    <path fill="#2C64B7" opacity="1.000000" stroke="none" d="M 372.07 156.579 C 372.244 156.548 372.505 156.768 372.873 157.222 C 372.706 157.247 372.431 157.038 372.07 156.579 Z"/>
    <path fill="#2C64B7" opacity="1.000000" stroke="none" d="M 382.136 157.356 C 382.008 157.126 382.198 156.862 382.709 156.572 C 382.836 156.805 382.643 157.064 382.136 157.356 Z"/>
    <path fill="#2C64B7" opacity="1.000000" stroke="none" d="M 372.081 101.73 C 372.308 101.566 372.583 101.732 372.914 102.225 C 372.699 102.377 372.419 102.213 372.081 101.73 Z"/>
    <path fill="#42BC8B" opacity="1.000000" stroke="none" d="M 651.726 346.965 C 649.878 347.363 647.867 347.389 645.426 347.43 C 639.041 344.693 632.566 342.693 627.256 339.013 C 619.561 333.68 617.498 324.775 617.19 316.06 C 616.476 295.847 620.517 276.752 633.081 260.233 C 636.984 255.101 641.786 251.096 648.643 249.56 C 649.662 251.655 650.857 253.746 650.866 255.843 C 650.989 284.131 650.936 312.42 650.974 340.709 C 650.976 342.67 651.359 344.632 651.726 346.965 Z"/>
    <path fill="#2C64B7" opacity="1.000000" stroke="none" d="M 645.034 348.879 C 645.217 349.369 645.354 350.22 645.258 351.25 C 645.012 350.7 645 349.97 645.034 348.879 Z"/>
    <path fill="#4992DF" opacity="1.000000" stroke="none" d="M 407.359 15.494 C 416.85 15.491 417.909 16.524 417.9 25.323 C 417.894 30.798 417.954 36.275 417.89 41.75 C 417.83 46.781 415.867 48.45 410.262 48.441 C 404.303 48.432 402.021 46.663 401.961 41.758 C 401.882 35.288 402.041 28.813 401.901 22.345 C 401.82 18.628 403.311 16.353 407.359 15.494 Z"/>
    <path fill="#4992DF" opacity="1.000000" stroke="none" d="M 385.929 35.404 C 385.931 37.223 385.933 38.554 385.932 39.885 C 385.927 47.715 380.91 51.123 373.786 47.721 C 372.083 46.908 370.245 44.407 370.133 42.58 C 369.706 35.617 369.869 28.612 369.993 21.625 C 370.071 17.232 372.762 15.37 378.355 15.475 C 383.526 15.572 385.809 17.461 385.904 21.937 C 385.997 26.261 385.927 30.589 385.929 35.404 Z"/>
    <path fill="#2E66B9" opacity="1.000000" stroke="none" d="M 414.81 324.684 C 414.423 329.556 413.704 334.609 412.956 340.057 C 410.737 334.988 412.015 329.868 414.81 324.684 Z"/>
    <path fill="#2E66B9" opacity="1.000000" stroke="none" d="M 412.628 349.676 C 412.893 350.548 412.906 351.605 412.883 353.058 C 412.69 352.257 412.533 351.059 412.628 349.676 Z"/>
    <path fill="#2E66B9" opacity="1.000000" stroke="none" d="M 421.567 311.506 C 421.442 312.085 420.985 312.719 420.285 313.528 C 420.44 312.989 420.838 312.276 421.567 311.506 Z"/>
    <path fill="#2E66B9" opacity="1.000000" stroke="none" d="M 416.588 320.481 C 416.801 320.78 416.686 321.051 416.3 321.421 C 416.202 321.206 416.279 320.85 416.588 320.481 Z"/>
    <path fill="#2E66B9" opacity="1.000000" stroke="none" d="M 428.919 303.627 C 428.972 303.831 428.736 304.121 428.26 304.559 C 428.222 304.376 428.426 304.044 428.919 303.627 Z"/>
    <path fill="#2E66B9" opacity="1.000000" stroke="none" d="M 412.703 366.577 C 412.853 366.49 412.903 366.963 412.881 367.2 C 412.757 367.179 412.655 366.921 412.703 366.577 Z"/>
    <path fill="#FFFFFF" opacity="1.000000" stroke="none" d="M 173.694 375.013 C 173.356 375.562 173.176 375.729 173.028 376.158 C 160.933 376.463 148.88 376.584 136.365 376.599 C 135.926 376.322 135.948 376.153 136.033 375.734 C 146.556 375.48 157.02 375.354 167.477 375.54 C 170.949 375.602 172.058 374.512 172.02 371.017 C 171.856 356.24 171.914 341.46 172.001 326.683 C 172.01 325.006 172.714 323.333 173.487 321.565 C 173.845 339.164 173.812 356.857 173.694 375.013 Z"/>
    <path fill="#2C64B7" opacity="1.000000" stroke="none" d="M 200.836 307.069 C 195.236 308.063 189.418 308.737 183.186 309.364 C 188.259 305.25 194.244 304.646 200.836 307.069 Z"/>
    <path fill="#2C64B7" opacity="1.000000" stroke="none" d="M 214.331 324.221 C 213.931 324.571 213.659 324.54 213.184 324.49 C 212.646 322.051 212.313 319.606 212.016 316.743 C 212.854 318.837 213.655 321.351 214.331 324.221 Z"/>
    <path fill="#2C64B7" opacity="1.000000" stroke="none" d="M 210.127 313.056 C 209.193 312.532 208.113 311.71 207.044 310.503 C 208.03 310.998 209.006 311.878 210.127 313.056 Z"/>
    <path fill="#FFFFFF" opacity="1.000000" stroke="none" d="M 136.434 286.373 C 136.505 285.488 136.924 284.539 137.612 283.41 C 137.514 284.256 137.148 285.283 136.434 286.373 Z"/>
    <path fill="#2C64B7" opacity="1.000000" stroke="none" d="M 203.868 308.084 C 203.169 308.215 202.255 308.076 201.155 307.635 C 201.864 307.493 202.758 307.654 203.868 308.084 Z"/>
    <path fill="#0A46A9" opacity="1.000000" stroke="none" d="M 176.658 315.542 C 176.732 315.961 176.556 316.561 176.097 317.308 C 176.012 316.878 176.209 316.3 176.658 315.542 Z"/>
    <path fill="#2C64B7" opacity="1.000000" stroke="none" d="M 212.078 316.104 C 211.756 315.927 211.384 315.444 211.006 314.633 C 211.342 314.802 211.685 315.3 212.078 316.104 Z"/>
    <path fill="#0A46A9" opacity="1.000000" stroke="none" d="M 178.681 312.662 C 178.751 313.059 178.561 313.611 178.112 314.307 C 178.042 313.907 178.232 313.362 178.681 312.662 Z"/>
    <path fill="#2C64B7" opacity="1.000000" stroke="none" d="M 181.477 310.208 C 181.36 310.579 180.946 310.991 180.211 311.422 C 180.319 311.043 180.749 310.646 181.477 310.208 Z"/>
    <path fill="#2C64B7" opacity="1.000000" stroke="none" d="M 205.889 309.178 C 205.48 309.236 204.875 309.056 204.132 308.579 C 204.561 308.502 205.127 308.721 205.889 309.178 Z"/>
    <path fill="#2C64B7" opacity="1.000000" stroke="none" d="M 182.574 309.331 C 182.654 309.567 182.459 309.877 181.983 310.239 C 181.901 309.996 182.1 309.701 182.574 309.331 Z"/>
    <path fill="#0A46A9" opacity="1.000000" stroke="none" d="M 177.632 314.389 C 177.73 314.665 177.533 314.956 177.088 315.346 C 177.005 315.098 177.172 314.751 177.632 314.389 Z"/>
    <path fill="#3770C6" opacity="1.000000" stroke="none" d="M 308.57 352.046 C 301.311 352.579 294.396 353.087 287.498 352.908 C 286.277 352.877 284.168 350.019 284.108 348.405 C 283.774 339.423 283.949 330.422 283.94 321.428 C 283.936 318.186 285.483 316.435 288.775 316.421 C 294.272 316.399 299.798 316.1 305.247 316.612 C 306.918 316.769 309.669 319.148 309.723 320.592 C 310.094 330.402 309.892 340.235 309.809 350.059 C 309.805 350.637 309.229 351.211 308.57 352.046 Z"/>
    <path fill="#3770C6" opacity="1.000000" stroke="none" d="M 352.532 316.443 C 353.993 317.915 355.82 319.338 355.864 320.813 C 356.13 329.938 355.917 339.075 356.035 348.207 C 356.08 351.666 354.123 353.182 351.226 353.328 C 345.926 353.595 340.533 353.926 335.327 353.185 C 333.34 352.902 330.364 349.839 330.237 347.888 C 329.68 339.289 329.947 330.634 330.022 322 C 330.056 318.078 332.372 316.397 336.132 316.405 C 341.446 316.416 346.76 316.414 352.532 316.443 Z"/>
  </g>
</svg>