<?xml version="1.0" encoding="utf-8"?>
<svg xmlns="http://www.w3.org/2000/svg" viewBox="59.2007 145.8816 389.4597 108.0542" width="780px" height="216px">
  <path fill="#090909" stroke="none" d="M 332.474 148.503 C 337.698 148.954 338.345 153.337 339.037 157.705 C 339.632 161.464 340.3 165.207 340.88 168.968 C 341.183 170.931 340.965 172.725 339.417 174.067 C 337.578 175.662 335.678 174.95 334.739 172.553 C 332.952 167.989 331.478 163.114 328.976 159.101 C 323.916 150.981 314.988 151.519 309.953 159.703 C 306.413 165.459 304.797 172.035 304.04 178.838 C 302.968 188.466 302.706 198.139 304.853 207.676 C 306.108 213.25 308.204 218.29 311.932 222.333 C 316.908 227.729 323.101 227.896 328.245 222.752 C 332.661 218.335 335.828 212.898 338.452 206.964 C 338.882 205.992 338.615 203.913 340.582 204.623 C 342.483 205.31 344.231 207.738 343.681 209.407 C 341.545 215.884 339.399 222.365 336.964 228.696 C 336.461 230.003 334.811 231.021 333.497 231.58 C 327.781 234.018 321.74 234.912 315.743 234.407 C 309.611 233.89 304.106 231.071 299.292 226.357 C 291.162 218.396 287.683 208.029 286.828 196.259 C 285.855 182.847 288.887 170.621 296.155 160.025 C 300.313 153.963 305.53 149.161 312.41 147.929 C 316.58 147.181 320.88 147.195 325.12 147.224 C 327.514 147.241 329.905 147.983 332.474 148.503 M 300.136 225.048 C 303.717 227.124 306.722 230.079 311.004 231.095 C 317.419 232.617 323.566 233.265 329.771 230.717 C 332.486 229.602 335.624 229.166 336.863 225.336 C 338.281 220.952 339.886 216.646 341.312 212.266 C 341.658 211.208 341.849 209.95 341.707 208.852 C 341.555 207.681 340.653 206.596 339.786 208.097 C 337.838 211.469 335.897 214.902 334.445 218.566 C 333.875 220.002 333.513 221 332.199 221.562 C 331.264 221.962 330.443 222.731 329.6 223.383 C 327.865 224.724 326.239 226.296 324.4 227.408 C 322.087 228.807 319.801 230.587 317.003 227.978 C 314.775 225.902 311.868 225.167 309.835 222.314 C 306.828 218.093 304.547 213.581 303.454 208.393 C 301.941 201.21 301.227 193.922 301.936 186.472 C 302.599 179.52 302.731 172.477 305.391 165.986 C 307.663 160.44 309.712 154.688 315.399 152.361 C 315.846 152.178 315.909 150.766 316.151 149.925 C 315.539 149.71 314.902 149.255 314.32 149.334 C 313.421 149.456 312.527 149.858 311.689 150.29 C 308.738 151.812 305.532 152.948 302.939 155.062 C 299.064 158.224 296.3 162.677 293.848 167.412 C 288.403 177.926 287.532 189.176 288.934 200.999 C 290.062 210.519 294.244 218.056 300.136 225.048 M 335.939 151.915 C 331.336 149.063 326.209 149.271 321.229 148.707 C 320.564 148.631 319.817 149.512 319.107 149.951 C 319.707 150.442 320.256 151.233 320.914 151.378 C 327.179 152.762 330.862 157.721 333.595 163.697 C 334.915 166.585 335.487 169.921 336.398 173.054 C 336.671 173.18 336.945 173.306 337.218 173.432 C 337.819 172.424 339.027 171.275 338.881 170.437 C 338.645 169.087 338.936 167.796 338.805 166.682 C 338.232 161.815 337.118 157.032 335.939 151.915 Z" style="" id="object-0"/>
  <path fill="#090909" opacity="1.000000" stroke="none" d="M 276.448 183.504 C 273.634 186.518 270.935 189.395 268.359 192.408 C 268.008 192.819 268.004 194.081 268.285 194.668 C 272.971 204.443 277.656 214.22 282.535 223.869 C 283.366 225.511 284.919 227.185 286.443 227.735 C 288.844 228.602 289.632 229.941 289.008 232.838 C 288.444 232.872 287.766 232.948 287.087 232.948 C 283.447 232.948 279.761 232.513 276.177 233.027 C 272.162 233.602 270.273 231.662 268.673 227.757 C 265.84 220.844 262.553 214.175 259.475 207.392 C 258.953 206.242 258.748 205.521 257.645 207.093 C 255.715 209.846 254.36 212.613 254.864 216.303 C 255.07 217.806 255.03 219.397 254.866 220.915 C 254.522 224.115 255.315 226.533 257.952 228.017 C 259.433 228.851 259.626 230.597 259.108 231.959 C 258.822 232.711 257.394 233.252 256.472 233.27 C 250.222 233.39 243.969 233.377 237.717 233.306 C 237.028 233.298 235.803 232.723 235.76 232.289 C 235.64 231.088 235.833 229.73 236.26 228.615 C 236.521 227.933 237.388 227.312 238.076 227.132 C 241.146 226.327 241.244 223.893 241.223 220.918 C 241.079 201.072 241.003 181.224 241.071 161.377 C 241.083 158.145 238.551 157.797 237.449 155.902 C 236.909 154.975 236.209 153.997 236.122 152.982 C 236.087 152.562 237.418 151.794 238.216 151.51 C 242.827 149.863 247.477 148.357 252.089 146.712 C 254.172 145.97 254.901 146.534 254.9 149.18 C 254.895 164.951 254.89 180.722 254.885 196.493 C 254.885 197.376 254.885 198.26 254.885 199.688 C 255.68 199.019 256.219 198.715 256.585 198.235 C 259.638 194.221 262.675 190.19 265.686 186.135 C 267.801 183.286 267.7 182.444 265.762 179.668 C 265.12 178.749 265.022 177.332 264.536 175.667 C 267.503 175.667 269.934 175.671 272.365 175.665 C 274.977 175.659 277.588 175.645 280.2 175.63 C 281.382 175.622 282.684 175.425 282.975 177.276 C 283.266 179.135 282.529 180.42 281.055 181.173 C 279.575 181.93 278.087 182.664 276.448 183.504 M 272.934 184.71 C 275.568 182.651 278.202 180.592 281.367 178.119 C 276.986 176.926 272.986 177.641 268.773 177.535 C 268.773 178.721 268.635 179.638 268.797 180.478 C 269.388 183.529 269.987 186.513 266.516 187.918 C 266.315 187.999 266.173 188.285 266.015 188.487 C 262.888 192.456 259.804 196.47 256.602 200.357 C 255.993 201.097 254.92 201.336 254.061 201.806 C 253.728 200.744 253.134 199.691 253.108 198.618 C 252.998 194.214 253.003 189.802 253.079 185.396 C 253.137 182.064 253.499 178.737 253.487 175.409 C 253.473 171.22 253.166 167.034 253.078 162.844 C 253.004 159.269 253.09 155.689 253.046 152.112 C 253.025 150.419 251.413 149.136 250.009 149.578 C 247.159 150.475 244.294 151.316 241.465 152.291 C 240.553 152.605 239.733 153.268 238.872 153.772 C 239.489 154.853 240.121 155.923 240.721 157.017 C 241.357 158.178 242.35 159.3 242.499 160.547 C 242.789 162.993 242.608 165.513 242.608 168.003 C 242.611 186.485 242.574 204.969 242.659 223.451 C 242.669 225.6 241.991 226.735 240.454 227.713 C 239.412 228.376 238.589 229.488 237.667 230.399 C 237.805 230.598 237.943 230.797 238.08 230.996 C 244.589 230.996 251.097 230.996 257.598 230.996 C 256.59 229.652 255.692 228.527 254.864 227.337 C 253.001 224.66 253.501 221.601 253.321 218.445 C 253.033 213.396 254.112 209.422 256.845 205.659 C 258.055 203.993 258.959 203.792 259.893 205.63 C 261.72 209.23 263.426 212.911 265.2 216.547 C 267.159 220.565 269.028 224.649 271.175 228.531 C 271.845 229.742 273.259 231.102 274.386 231.165 C 277.949 231.367 281.539 230.987 285.675 230.808 C 283.73 228.102 281.907 226.176 280.734 223.825 C 276.023 214.383 271.476 204.831 266.986 195.246 C 266.57 194.359 266.58 192.587 267.087 191.869 C 268.805 189.433 270.835 187.287 272.934 184.71 M 287.317 229.84 C 287.06 229.944 286.803 230.048 286.546 230.153 C 286.606 230.304 286.666 230.454 286.727 230.606 C 286.991 230.429 287.256 230.253 287.317 229.84 Z" style="" id="object-1"/>
  <path fill="#090909" opacity="1.000000" stroke="none" d="M 408.913 192.667 C 407.999 189.526 407.256 186.516 406.113 183.722 C 405.669 182.637 404.415 181.762 403.36 181.276 C 401.228 180.29 400.36 178.729 400.919 175.998 C 408.806 175.998 416.763 175.998 424.819 175.998 C 425.455 178.18 424.883 179.535 422.916 180.521 C 419.995 181.985 419.847 182.634 420.753 185.573 C 423.266 193.736 425.766 201.903 428.274 210.069 C 428.517 210.863 428.777 211.652 429.554 212.409 C 432.016 203.417 434.547 194.449 436.832 185.4 C 437.066 184.474 435.962 182.924 435.218 181.915 C 434.666 181.165 433.547 180.981 432.942 180.258 C 432.224 179.402 431.786 178.238 431.227 177.207 C 432.132 176.689 433.029 175.749 433.943 175.726 C 438.214 175.621 442.49 175.728 446.761 175.871 C 447.42 175.893 448.523 176.383 448.612 176.857 C 448.77 177.688 448.53 179.266 448.059 179.505 C 441.532 182.823 441.383 190.457 439.366 196.62 C 434.818 210.517 430.765 224.626 426.431 238.616 C 424.26 245.625 420.655 251.374 414.019 253.224 C 410.934 254.085 407.559 254.452 404.411 252.637 C 402.712 251.658 402.061 250.216 402.702 248.245 C 403.575 245.559 404.481 242.859 405.665 240.346 C 406.42 238.744 407.765 238.861 409.011 240.015 C 410.04 240.969 411.034 242.103 412.221 242.673 C 415.009 244.013 418.409 242.723 420.073 239.45 C 421.403 236.836 422.389 234.313 421.052 230.723 C 417.746 221.845 415.127 212.63 412.245 203.545 C 411.12 199.998 410.03 196.437 408.913 192.667 M 432.496 213.587 C 431.885 212.211 431.885 212.211 429.908 214.459 C 429.011 213.572 427.786 212.86 427.249 211.721 C 426.321 209.755 425.765 207.545 425.151 205.4 C 423.296 198.92 421.54 192.403 419.641 185.94 C 418.624 182.481 418.943 181.227 421.71 179.344 C 422.294 178.946 422.797 178.393 423.838 177.467 C 419.752 177.467 416.431 177.467 413.111 177.467 C 409.82 177.467 406.529 177.467 403.238 177.467 C 403.217 177.795 403.197 178.124 403.176 178.453 C 404.14 179.252 405.213 179.926 406.048 180.875 C 408.249 183.376 408.764 186.755 409.688 189.999 C 411.762 197.28 414.224 204.414 416.501 211.62 C 418.365 217.525 419.78 223.677 422.173 229.283 C 423.846 233.201 423.666 236.473 421.746 239.635 C 420.565 241.579 418.779 243.435 416.901 244.346 C 413.289 246.099 410.355 243.272 407.213 241.456 C 405.19 243.394 404.737 246.216 404.681 249.095 C 404.668 249.791 405.541 250.991 406.153 251.135 C 408.214 251.618 410.353 252.027 412.441 251.921 C 416.764 251.699 420.825 247.568 421.746 243.347 C 422.758 242.408 423.812 241.402 424.222 240.124 C 427.01 231.438 429.663 222.696 432.496 213.587 M 435.71 197.046 C 435.111 199.325 434.704 201.702 433.876 203.866 C 431.897 209.037 431.817 208.996 433.334 210.554 C 435.418 203.793 437.586 197.16 439.49 190.43 C 440.596 186.526 441.759 182.799 444.714 180.163 C 445.263 179.672 445.591 178.857 446.315 177.736 C 442.206 177.736 438.68 177.736 434.931 177.736 C 435.155 178.456 435.174 179.039 435.42 179.223 C 439.235 182.077 439.023 185.828 437.395 189.998 C 437.053 190.874 437.101 191.941 436.884 192.894 C 436.596 194.164 436.223 195.408 435.71 197.046 Z" style="" id="object-2"/>
  <path fill="#090909" opacity="1.000000" stroke="none" d="M 98.054 148.156 C 101.941 149.212 105.547 150.273 108.804 152.781 C 117.465 159.449 119.735 177.992 106.983 185.538 C 105.696 186.299 104.385 187.01 103.057 187.76 C 105.818 189.565 108.515 191.148 111.051 193.017 C 120.389 199.901 120.145 215.51 113.393 223.545 C 108.073 229.875 101.588 232.739 94.168 232.884 C 83.332 233.097 72.49 232.934 61.65 232.971 C 60.465 232.975 59.475 232.824 59.262 231.244 C 59.081 229.9 59.231 228.725 60.678 228.366 C 61.038 228.276 61.332 227.814 61.69 227.741 C 66.663 226.725 67.174 222.863 67.128 217.903 C 66.954 198.898 67.042 179.891 67.141 160.885 C 67.159 157.519 66.222 155.238 63.408 154.043 C 62.345 153.592 61.139 153.155 60.393 152.275 C 59.728 151.488 59.402 150.11 59.349 148.967 C 59.329 148.535 60.489 147.623 61.115 147.619 C 72.034 147.547 82.953 147.564 93.872 147.617 C 95.197 147.624 96.522 147.948 98.054 148.156 M 114.129 166.086 C 113.893 165.039 113.662 163.989 113.42 162.944 C 112.099 157.234 108.527 153.886 104.035 151.777 C 101.833 150.743 99.402 150.085 97.03 149.846 C 92.601 149.4 88.139 149.251 83.69 149.23 C 79.863 149.212 76.035 149.593 72.206 149.707 C 69.425 149.789 66.642 149.723 63.388 149.723 C 63.686 150.537 63.797 151.844 64.349 152.167 C 66.539 153.449 68.774 156.86 68.745 159.523 C 68.6 172.775 68.419 186.026 68.296 199.277 C 68.281 200.882 68.62 202.488 68.65 204.097 C 68.721 207.858 68.77 211.622 68.699 215.381 C 68.642 218.441 68.438 221.499 68.202 224.548 C 68.16 225.097 67.729 225.701 67.339 226.1 C 65.987 227.485 64.574 228.792 62.785 230.512 C 63.932 230.634 64.597 230.766 65.263 230.767 C 75.399 230.78 85.542 231.029 95.67 230.7 C 104.474 230.415 111.651 226.342 115.406 216.65 C 117.833 210.386 117.926 203.993 114.096 198.285 C 111.653 194.645 108.292 192.269 104.538 190.577 C 103.575 190.143 102.86 188.99 102.031 188.167 C 102.799 187.238 103.445 186.095 104.355 185.417 C 107.595 183.003 111.438 181.056 112.954 176.838 C 114.075 173.72 113.876 169.979 114.129 166.086 Z" style="" id="object-3"/>
  <path fill="#090909" opacity="1.000000" stroke="none" d="M 221.358 175.277 C 225.21 176.453 228.931 177.389 232.443 178.943 C 233.451 179.388 234.582 181.758 234.397 182.999 C 233.937 186.09 233.042 189.21 231.785 192.001 C 230.288 195.323 227.93 195.229 226.212 192.101 C 225.044 189.976 224.074 187.704 222.873 185.605 C 220.725 181.849 215.686 180.13 213.051 182.479 C 211.771 183.62 210.734 185.446 210.135 187.206 C 206.985 196.462 206.758 205.814 210.502 214.91 C 212.18 218.985 214.903 221.996 219.136 222.762 C 223.35 223.525 226.82 221.955 229.931 218.894 C 230.35 218.482 230.733 218.018 231.104 217.549 C 231.988 216.434 232.841 215.386 234.282 216.613 C 235.674 217.798 235.8 219.161 235.013 220.841 C 232.321 226.58 228.433 230.959 223.003 232.868 C 215.794 235.403 208.994 234.559 202.911 228.648 C 198.38 224.244 196.047 218.737 195.145 212.218 C 193.819 202.643 195.499 193.812 200.327 185.85 C 205.433 177.431 212.12 173.914 221.358 175.277 M 221.595 181.718 C 223.168 183.944 224.676 186.238 226.344 188.367 C 227.169 189.418 228.207 190.703 229.298 190.926 C 231.053 191.285 231.524 189.363 231.937 187.763 C 232.072 187.243 232.196 186.714 232.384 186.219 C 233.625 182.951 231.669 179.763 229.039 178.656 C 224.339 176.679 219.448 176.643 214.672 177.127 C 208.571 177.746 204.104 181.945 200.884 187.794 C 196.4 195.94 195.937 204.934 197.131 214.114 C 197.388 216.089 197.312 218.66 199.645 219.816 C 200.271 220.126 200.431 221.68 200.796 222.668 C 201.062 223.389 201.136 224.368 201.602 224.8 C 203.608 226.661 205.529 228.951 207.853 229.975 C 210.927 231.328 214.322 231.984 217.628 232.331 C 223.421 232.938 230.493 227.428 232.6 220.499 C 230.926 221.234 229.576 221.552 228.495 222.349 C 223.107 226.322 217.028 225.813 212.584 220.547 C 206.837 213.74 205.669 205.258 206.527 196.273 C 206.78 193.621 207.748 191.065 208.306 188.443 C 209.457 183.044 212.127 180.458 216.661 179.509 C 218.828 179.056 219.715 180.982 221.595 181.718 Z" style="" id="object-4"/>
  <path fill="#090909" opacity="1.000000" stroke="none" d="M 138.887 220.925 C 138.349 224.353 139.649 226.271 142.094 227.442 C 142.671 227.719 143.461 227.948 143.709 228.474 C 144.217 229.549 144.556 230.798 144.648 232.006 C 144.667 232.263 143.34 232.933 142.628 232.943 C 135.512 233.041 128.395 233.083 121.28 233.004 C 120.565 232.996 119.287 232.105 119.27 231.58 C 119.236 230.587 119.83 229.487 120.357 228.579 C 120.672 228.035 121.316 227.563 121.882 227.416 C 125.858 226.39 125.394 222.939 125.381 219.548 C 125.314 201.073 125.208 182.597 125.398 164.125 C 125.435 160.489 124.117 158.602 121.788 156.815 C 120.903 156.136 120.002 154.903 119.805 153.765 C 119.472 151.841 121.162 151.345 122.327 150.925 C 126.889 149.277 131.503 147.823 136.086 146.252 C 138.477 145.433 139.067 145.86 139.061 148.67 C 139.009 172.668 138.949 196.666 138.887 220.925 M 137.63 163.594 C 137.63 159.338 137.638 155.081 137.627 150.824 C 137.619 148.035 137.145 147.613 134.849 148.345 C 134.243 148.538 133.672 148.868 133.069 149.073 C 130.235 150.041 127.378 150.925 124.568 151.971 C 123.462 152.383 122.454 153.139 121.058 153.933 C 122.068 154.797 122.53 155.286 123.063 155.633 C 126.403 157.807 127.299 161.074 127.253 165.392 C 127.071 182.327 127.176 199.266 127.186 216.203 C 127.186 217.098 126.996 218.297 127.41 218.83 C 128.555 220.303 127.763 221.424 127.375 222.797 C 126.554 225.699 125.229 227.978 122.616 229.031 C 122.114 229.234 121.611 229.437 121.109 229.64 C 121.335 229.94 121.561 230.24 121.786 230.54 C 128.106 230.54 134.425 230.54 141.404 230.54 C 140.535 229.149 140.118 228.061 139.398 227.412 C 137.607 225.797 137.073 223.806 137.121 221.257 C 137.355 209.012 137.501 196.765 137.618 184.517 C 137.683 177.725 137.63 170.932 137.63 163.594 Z" style="" id="object-5"/>
  <path fill="#090909" opacity="1.000000" stroke="none" d="M 388.016 207.916 C 388.159 211.531 388.248 214.881 388.465 218.22 C 388.652 221.099 391.446 223.229 394.538 222.883 C 395.682 222.755 396.799 222.303 397.943 222.173 C 398.714 222.086 399.511 222.303 400.296 222.384 C 400.219 223.341 400.39 224.452 400.023 225.231 C 396.979 231.707 387.647 235.466 381.699 232.54 C 377.812 230.626 375.4 226.951 374.82 222.306 C 374.217 217.471 374.291 212.513 374.222 207.607 C 374.127 200.812 374.01 194.009 374.236 187.223 C 374.338 184.155 373.219 183.196 370.909 182.877 C 370.059 182.759 369.254 182.215 367.818 181.608 C 369.495 179.388 370.912 177.678 372.165 175.823 C 375.861 170.35 379.61 164.913 383.073 159.251 C 384.063 157.631 385.102 157.458 386.381 157.657 C 388.005 157.91 387.442 159.516 387.489 160.655 C 387.671 165.075 387.875 169.495 387.943 173.918 C 387.973 175.86 389.049 175.811 390.163 175.819 C 393.245 175.843 396.326 175.828 399.822 175.828 C 399.822 177.616 400.091 179.369 399.716 180.919 C 399.511 181.762 398.243 182.761 397.406 182.823 C 394.345 183.05 391.263 182.913 388.018 182.913 C 388.018 191.248 388.018 199.447 388.016 207.916 M 388.473 231.77 C 392.48 230.751 396.087 229.016 398.667 224.95 C 398.081 224.53 397.951 224.359 397.82 224.357 C 397.432 224.354 397.006 224.312 396.663 224.473 C 393.94 225.75 391.6 224.608 389.472 222.823 C 388.641 222.127 387.699 220.965 387.581 219.903 C 387.077 215.363 386.748 210.786 386.569 206.212 C 386.306 199.535 386.258 192.847 386.059 186.166 C 385.952 182.585 386.795 181.405 389.948 181.29 C 392.241 181.207 394.538 181.286 396.833 181.254 C 398.456 181.232 398.49 179.895 398.391 178.566 C 398.283 177.114 397.572 177.109 396.405 177.16 C 393.753 177.276 391.078 177.089 388.433 176.788 C 387.129 176.64 386.525 175.57 386.506 173.894 C 386.459 169.838 386.245 165.783 386.038 161.732 C 386.01 161.195 385.631 160.682 385.414 160.158 C 384.955 160.407 384.327 160.515 384.064 160.928 C 381.808 164.466 379.605 168.049 377.417 171.642 C 376.408 173.298 375.596 175.133 374.459 176.657 C 373.394 178.083 372.019 179.207 370.359 180.89 C 374.849 181.637 375.56 182.299 375.61 185.351 C 375.788 196.292 376.181 207.239 376.011 218.175 C 375.887 226.198 380.663 232.201 388.473 231.77 Z" style="" id="object-6"/>
  <path fill="#090909" opacity="1.000000" stroke="none" d="M 189.895 192.17 C 193.315 204.665 192.112 216.114 184.62 226.016 C 178.007 234.755 165.993 237.719 156.793 231.229 C 150.21 226.584 146.645 219.487 145.213 210.808 C 144.198 204.652 144.91 198.745 146.718 193.009 C 149.415 184.454 153.982 177.748 162.216 175.872 C 174.792 173.008 184.657 176.776 189.895 192.17 M 188.922 193.653 C 187.884 191.144 187.106 188.431 185.755 186.165 C 182.431 180.589 177.798 177.056 171.778 177.031 C 167.814 177.016 163.701 177.289 159.932 178.535 C 157.439 179.36 155.182 181.858 153.291 184.123 C 151.467 186.306 149.754 188.944 148.858 191.746 C 146.14 200.242 145.344 208.959 148.639 217.557 C 149.272 219.209 151.22 220.395 151.461 222.011 C 151.991 225.558 155.537 225.919 156.33 228.94 C 160.734 231.009 164.94 234.151 170.065 232.463 C 172.459 231.674 174.788 230.595 177.207 229.941 C 180.955 228.929 183.231 225.556 185.192 222.502 C 190.682 213.952 190.737 204.103 188.922 193.653 Z" style="" id="object-7"/>
  <path fill="#090909" opacity="1.000000" stroke="none" d="M 366.496 227.667 C 367.918 228.4 368.871 229.403 368.431 231.057 C 368.229 231.817 367.323 232.86 366.724 232.871 C 359.848 232.996 352.969 232.969 346.091 232.931 C 344.354 232.921 343.53 230.855 344.547 229.14 C 344.851 228.627 345.239 228.022 345.707 227.816 C 349.345 226.216 349.751 223.023 349.639 219.036 C 349.388 210.081 349.39 201.11 349.558 192.151 C 349.614 189.169 348.633 187.296 346.767 185.528 C 345.887 184.696 344.77 183.225 344.898 182.237 C 345.025 181.26 346.479 180.183 347.538 179.751 C 351.47 178.148 355.454 176.693 359.468 175.379 C 362.585 174.359 363.362 175.39 363.331 178.656 C 363.195 192.778 363.39 206.905 363.184 221.026 C 363.137 224.252 363.887 226.26 366.496 227.667 M 365.72 230.747 C 367.169 229.869 366.061 229.482 365.457 229.04 C 362.695 227.022 361.512 224.595 361.693 220.42 C 362.14 210.111 361.84 199.76 361.84 189.425 C 361.84 186.706 361.908 183.983 361.822 181.267 C 361.714 177.857 360.492 176.869 357.704 177.911 C 354.648 179.054 351.62 180.296 348.585 181.515 C 347.784 181.836 347.006 182.23 346.043 182.67 C 346.995 183.684 347.564 184.471 348.274 185.015 C 351.181 187.244 351.332 190.726 351.362 194.139 C 351.445 203.384 351.273 212.635 351.457 221.876 C 351.518 224.985 350.352 226.759 348.27 228.228 C 347.633 228.678 347.118 229.356 346.27 230.209 C 347.065 230.532 347.342 230.742 347.621 230.743 C 351.947 230.768 356.273 230.77 360.6 230.763 C 360.91 230.763 361.323 230.785 361.513 230.581 C 362.867 229.133 364.114 229.935 365.72 230.747 Z" style="" id="object-8"/>
  <path fill="#0CB4CB" opacity="1.000000" stroke="none" d="M 362.492 157.867 C 360.375 162.636 356.175 164.168 352.398 161.699 C 350.705 160.592 349.075 156.569 349.509 154.57 C 350.196 151.405 352.423 149.234 355.057 149.163 C 360.749 149.009 363.324 151.92 362.492 157.867 Z" style="" id="object-9"/>
  <path fill="#090909" opacity="1.000000" stroke="none" d="M 300.002 224.92 C 294.244 218.056 290.062 210.519 288.934 200.999 C 287.532 189.176 288.403 177.926 293.848 167.412 C 296.3 162.677 299.064 158.224 302.939 155.062 C 305.532 152.948 308.738 151.812 311.689 150.29 C 312.527 149.858 313.421 149.456 314.32 149.334 C 314.902 149.255 315.539 149.71 316.151 149.925 C 315.909 150.766 315.846 152.178 315.399 152.361 C 309.712 154.688 307.663 160.44 305.391 165.986 C 302.731 172.477 302.599 179.52 301.936 186.472 C 301.227 193.922 301.941 201.21 303.454 208.393 C 304.547 213.581 306.828 218.093 309.835 222.314 C 311.868 225.167 314.775 225.902 317.003 227.978 C 319.801 230.587 322.087 228.807 324.4 227.408 C 326.239 226.296 327.865 224.724 329.6 223.383 C 330.443 222.731 331.264 221.962 332.199 221.562 C 333.513 221 333.875 220.002 334.445 218.566 C 335.897 214.902 337.838 211.469 339.786 208.097 C 340.653 206.596 341.555 207.681 341.707 208.852 C 341.849 209.95 341.658 211.208 341.312 212.266 C 339.886 216.646 338.281 220.952 336.863 225.336 C 335.624 229.166 332.486 229.602 329.771 230.717 C 323.566 233.265 317.419 232.617 311.004 231.095 C 306.722 230.079 303.717 227.124 300.002 224.92 Z" style="" id="object-10"/>
  <path fill="#090909" opacity="1.000000" stroke="none" d="M 336.069 152.066 C 337.118 157.032 338.232 161.815 338.805 166.682 C 338.936 167.796 338.645 169.087 338.881 170.437 C 339.027 171.275 337.819 172.424 337.218 173.432 C 336.945 173.306 336.671 173.18 336.398 173.054 C 335.487 169.921 334.915 166.585 333.595 163.697 C 330.862 157.721 327.179 152.762 320.914 151.378 C 320.256 151.233 319.707 150.442 319.107 149.951 C 319.817 149.512 320.564 148.631 321.229 148.707 C 326.209 149.271 331.336 149.063 336.069 152.066 Z" style="" id="object-11"/>
  <path fill="#090909" opacity="1.000000" stroke="none" d="M 272.84 184.87 C 270.835 187.287 268.805 189.433 267.087 191.869 C 266.58 192.587 266.57 194.359 266.986 195.246 C 271.476 204.831 276.023 214.383 280.734 223.825 C 281.907 226.176 283.73 228.102 285.675 230.808 C 281.539 230.987 277.949 231.367 274.386 231.165 C 273.259 231.102 271.845 229.742 271.175 228.531 C 269.028 224.649 267.159 220.565 265.2 216.547 C 263.426 212.911 261.72 209.23 259.893 205.63 C 258.959 203.792 258.055 203.993 256.845 205.659 C 254.112 209.422 253.033 213.396 253.321 218.445 C 253.501 221.601 253.001 224.66 254.864 227.337 C 255.692 228.527 256.59 229.652 257.598 230.996 C 251.097 230.996 244.589 230.996 238.08 230.996 C 237.943 230.797 237.805 230.598 237.667 230.399 C 238.589 229.488 239.412 228.376 240.454 227.713 C 241.991 226.735 242.669 225.6 242.659 223.451 C 242.574 204.969 242.611 186.485 242.608 168.003 C 242.608 165.513 242.789 162.993 242.499 160.547 C 242.35 159.3 241.357 158.178 240.721 157.017 C 240.121 155.923 239.489 154.853 238.872 153.772 C 239.733 153.268 240.553 152.605 241.465 152.291 C 244.294 151.316 247.159 150.475 250.009 149.578 C 251.413 149.136 253.025 150.419 253.046 152.112 C 253.09 155.689 253.004 159.269 253.078 162.844 C 253.166 167.034 253.473 171.22 253.487 175.409 C 253.499 178.737 253.137 182.064 253.079 185.396 C 253.003 189.802 252.998 194.214 253.108 198.618 C 253.134 199.691 253.728 200.744 254.061 201.806 C 254.92 201.336 255.993 201.097 256.602 200.357 C 259.804 196.47 262.888 192.456 266.015 188.487 C 266.173 188.285 266.315 187.999 266.516 187.918 C 269.987 186.513 269.388 183.529 268.797 180.478 C 268.635 179.638 268.773 178.721 268.773 177.535 C 272.986 177.641 276.986 176.926 281.367 178.119 C 278.202 180.592 275.568 182.651 272.84 184.87 Z" style="" id="object-12"/>
  <path fill="#090909" opacity="1.000000" stroke="none" d="M 432.428 213.779 C 429.663 222.696 427.01 231.438 424.222 240.124 C 423.812 241.402 422.758 242.408 421.746 243.347 C 420.825 247.568 416.764 251.699 412.441 251.921 C 410.353 252.027 408.214 251.618 406.153 251.135 C 405.541 250.991 404.668 249.791 404.681 249.095 C 404.737 246.216 405.19 243.394 407.213 241.456 C 410.355 243.272 413.289 246.099 416.901 244.346 C 418.779 243.435 420.565 241.579 421.746 239.635 C 423.666 236.473 423.846 233.201 422.173 229.283 C 419.78 223.677 418.365 217.525 416.501 211.62 C 414.224 204.414 411.762 197.28 409.688 189.999 C 408.764 186.755 408.249 183.376 406.048 180.875 C 405.213 179.926 404.14 179.252 403.176 178.453 C 403.197 178.124 403.217 177.795 403.238 177.467 C 406.529 177.467 409.82 177.467 413.111 177.467 C 416.431 177.467 419.752 177.467 423.838 177.467 C 422.797 178.393 422.294 178.946 421.71 179.344 C 418.943 181.227 418.624 182.481 419.641 185.94 C 421.54 192.403 423.296 198.92 425.151 205.4 C 425.765 207.545 426.321 209.755 427.249 211.721 C 427.786 212.86 429.011 213.572 429.908 214.459 C 431.885 212.211 431.885 212.211 432.428 213.779 Z" style="" id="object-13"/>
  <path fill="#090909" opacity="1.000000" stroke="none" d="M 435.798 196.854 C 436.223 195.408 436.596 194.164 436.884 192.894 C 437.101 191.941 437.053 190.874 437.395 189.998 C 439.023 185.828 439.235 182.077 435.42 179.223 C 435.174 179.039 435.155 178.456 434.931 177.736 C 438.68 177.736 442.206 177.736 446.315 177.736 C 445.591 178.857 445.263 179.672 444.714 180.163 C 441.759 182.799 440.596 186.526 439.49 190.43 C 437.586 197.16 435.418 203.793 433.334 210.554 C 431.817 208.996 431.897 209.037 433.876 203.866 C 434.704 201.702 435.111 199.325 435.798 196.854 Z" style="" id="object-14"/>
  <path fill="#090909" opacity="1.000000" stroke="none" d="M 114.197 166.301 C 113.876 169.979 114.075 173.72 112.954 176.838 C 111.438 181.056 107.595 183.003 104.355 185.417 C 103.445 186.095 102.799 187.238 102.031 188.167 C 102.86 188.99 103.575 190.143 104.538 190.577 C 108.292 192.269 111.653 194.645 114.096 198.285 C 117.926 203.993 117.833 210.386 115.406 216.65 C 111.651 226.342 104.474 230.415 95.67 230.7 C 85.542 231.029 75.399 230.78 65.263 230.767 C 64.597 230.766 63.932 230.634 62.785 230.512 C 64.574 228.792 65.987 227.485 67.339 226.1 C 67.729 225.701 68.16 225.097 68.202 224.548 C 68.438 221.499 68.642 218.441 68.699 215.381 C 68.77 211.622 68.721 207.858 68.65 204.097 C 68.62 202.488 68.281 200.882 68.296 199.277 C 68.419 186.026 68.6 172.775 68.745 159.523 C 68.774 156.86 66.539 153.449 64.349 152.167 C 63.797 151.844 63.686 150.537 63.388 149.723 C 66.642 149.723 69.425 149.789 72.206 149.707 C 76.035 149.593 79.863 149.212 83.69 149.23 C 88.139 149.251 92.601 149.4 97.03 149.846 C 99.402 150.085 101.833 150.743 104.035 151.777 C 108.527 153.886 112.099 157.234 113.42 162.944 C 113.662 163.989 113.893 165.039 114.197 166.301 M 98.654 194.573 C 97.901 193.594 97.313 192.206 96.366 191.708 C 92.678 189.766 88.757 189.034 84.673 189.41 C 82.049 189.652 80.631 191.179 80.628 194.159 C 80.62 203.305 80.619 212.452 80.628 221.598 C 80.632 225.441 82.582 228.021 85.958 227.983 C 88.781 227.952 91.748 227.782 94.382 226.762 C 97.721 225.469 100.805 222.662 101.728 218.843 C 102.82 214.333 102.878 209.402 102.846 204.659 C 102.82 200.919 101.522 197.434 98.654 194.573 M 101.514 172.571 C 101.518 170.94 101.652 169.293 101.502 167.681 C 101.119 163.553 100.351 159.604 97.68 156.423 C 94.728 152.907 90.904 151.888 86.978 151.519 C 83.699 151.209 80.67 153.972 80.648 156.837 C 80.586 165.172 80.614 173.508 80.634 181.843 C 80.64 184.105 81.729 185.956 83.505 186.333 C 88.084 187.306 92.543 186.934 96.513 183.525 C 99.613 180.864 100.428 176.917 101.514 172.571 Z" style="" id="object-15"/>
  <path fill="#090909" opacity="1.000000" stroke="none" d="M 221.433 181.637 C 219.715 180.982 218.828 179.056 216.661 179.509 C 212.127 180.458 209.457 183.044 208.306 188.443 C 207.748 191.065 206.78 193.621 206.527 196.273 C 205.669 205.258 206.837 213.74 212.584 220.547 C 217.028 225.813 223.107 226.322 228.495 222.349 C 229.576 221.552 230.926 221.234 232.6 220.499 C 230.493 227.428 223.421 232.938 217.628 232.331 C 214.322 231.984 210.927 231.328 207.853 229.975 C 205.529 228.951 203.608 226.661 201.602 224.8 C 201.136 224.368 201.062 223.389 200.796 222.668 C 200.431 221.68 200.271 220.126 199.645 219.816 C 197.312 218.66 197.388 216.089 197.131 214.114 C 195.937 204.934 196.4 195.94 200.884 187.794 C 204.104 181.945 208.571 177.746 214.672 177.127 C 219.448 176.643 224.339 176.679 229.039 178.656 C 231.669 179.763 233.625 182.951 232.384 186.219 C 232.196 186.714 232.072 187.243 231.937 187.763 C 231.524 189.363 231.053 191.285 229.298 190.926 C 228.207 190.703 227.169 189.418 226.344 188.367 C 224.676 186.238 223.168 183.944 221.433 181.637 Z" style="" id="object-16"/>
  <path fill="#090909" opacity="1.000000" stroke="none" d="M 137.63 163.866 C 137.63 170.932 137.683 177.725 137.618 184.517 C 137.501 196.765 137.355 209.012 137.121 221.257 C 137.073 223.806 137.607 225.797 139.398 227.412 C 140.118 228.061 140.535 229.149 141.404 230.54 C 134.425 230.54 128.106 230.54 121.786 230.54 C 121.561 230.24 121.335 229.94 121.109 229.64 C 121.611 229.437 122.114 229.234 122.616 229.031 C 125.229 227.978 126.554 225.699 127.375 222.797 C 127.763 221.424 128.555 220.303 127.41 218.83 C 126.996 218.297 127.186 217.098 127.186 216.203 C 127.176 199.266 127.071 182.327 127.253 165.392 C 127.299 161.074 126.403 157.807 123.063 155.633 C 122.53 155.286 122.068 154.797 121.058 153.933 C 122.454 153.139 123.462 152.383 124.568 151.971 C 127.378 150.925 130.235 150.041 133.069 149.073 C 133.672 148.868 134.243 148.538 134.849 148.345 C 137.145 147.613 137.619 148.035 137.627 150.824 C 137.638 155.081 137.63 159.338 137.63 163.866 Z" style="" id="object-17"/>
  <path fill="#090909" opacity="1.000000" stroke="none" d="M 388.271 231.805 C 380.663 232.201 375.887 226.198 376.011 218.175 C 376.181 207.239 375.788 196.292 375.61 185.351 C 375.56 182.299 374.849 181.637 370.359 180.89 C 372.019 179.207 373.394 178.083 374.459 176.657 C 375.596 175.133 376.408 173.298 377.417 171.642 C 379.605 168.049 381.808 164.466 384.064 160.928 C 384.327 160.515 384.955 160.407 385.414 160.158 C 385.631 160.682 386.01 161.195 386.038 161.732 C 386.245 165.783 386.459 169.838 386.506 173.894 C 386.525 175.57 387.129 176.64 388.433 176.788 C 391.078 177.089 393.753 177.276 396.405 177.16 C 397.572 177.109 398.283 177.114 398.391 178.566 C 398.49 179.895 398.456 181.232 396.833 181.254 C 394.538 181.286 392.241 181.207 389.948 181.29 C 386.795 181.405 385.952 182.585 386.059 186.166 C 386.258 192.847 386.306 199.535 386.569 206.212 C 386.748 210.786 387.077 215.363 387.581 219.903 C 387.699 220.965 388.641 222.127 389.472 222.823 C 391.6 224.608 393.94 225.75 396.663 224.473 C 397.006 224.312 397.432 224.354 397.82 224.357 C 397.951 224.359 398.081 224.53 398.667 224.95 C 396.087 229.016 392.48 230.751 388.271 231.805 Z" style="" id="object-18"/>
  <path fill="#090909" opacity="1.000000" stroke="none" d="M 188.944 193.876 C 190.737 204.103 190.682 213.952 185.192 222.502 C 183.231 225.556 180.955 228.929 177.207 229.941 C 174.788 230.595 172.459 231.674 170.065 232.463 C 164.94 234.151 160.734 231.009 156.33 228.94 C 155.537 225.919 151.991 225.558 151.461 222.011 C 151.22 220.395 149.272 219.209 148.639 217.557 C 145.344 208.959 146.14 200.242 148.858 191.746 C 149.754 188.944 151.467 186.306 153.291 184.123 C 155.182 181.858 157.439 179.36 159.932 178.535 C 163.701 177.289 167.814 177.016 171.778 177.031 C 177.798 177.056 182.431 180.589 185.755 186.165 C 187.106 188.431 187.884 191.144 188.944 193.876 M 178.518 191.389 C 178.147 189.515 178.131 187.41 177.334 185.815 C 175.542 182.226 172.484 180.312 169.11 179.086 C 168.613 178.905 167.944 178.672 167.547 178.901 C 163.954 180.972 160.794 183.755 159.535 188.27 C 157.296 196.296 157.279 204.636 158.166 212.873 C 158.763 218.417 160.276 223.705 164.144 227.825 C 166.461 230.293 169.212 229.381 171.732 230 C 172.336 230.149 173.471 228.132 174.171 226.961 C 175.52 224.704 176.955 222.455 177.927 219.981 C 178.576 218.328 178.459 216.288 178.732 214.43 C 179.841 206.889 179.688 199.36 178.518 191.389 Z" style="" id="object-19"/>
  <path fill="#090909" opacity="1.000000" stroke="none" d="M 365.548 230.741 C 364.114 229.935 362.867 229.133 361.513 230.581 C 361.323 230.785 360.91 230.763 360.6 230.763 C 356.273 230.77 351.947 230.768 347.621 230.743 C 347.342 230.742 347.065 230.532 346.27 230.209 C 347.118 229.356 347.633 228.678 348.27 228.228 C 350.352 226.759 351.518 224.985 351.457 221.876 C 351.273 212.635 351.445 203.384 351.362 194.139 C 351.332 190.726 351.181 187.244 348.274 185.015 C 347.564 184.471 346.995 183.684 346.043 182.67 C 347.006 182.23 347.784 181.836 348.585 181.515 C 351.62 180.296 354.648 179.054 357.704 177.911 C 360.492 176.869 361.714 177.857 361.822 181.267 C 361.908 183.983 361.84 186.706 361.84 189.425 C 361.84 199.76 362.14 210.111 361.693 220.42 C 361.512 224.595 362.695 227.022 365.457 229.04 C 366.061 229.482 367.169 229.869 365.548 230.741 Z" style="" id="object-20"/>
</svg>