<?xml version="1.0" encoding="utf-8"?>
<svg xmlns="http://www.w3.org/2000/svg" viewBox="9.6177 150.7088 470.6078 113.567" width="470.608px" height="113.567px">
  <g transform="matrix(0.05430000647902489, 0, 0, -0.05430000647902489, -32.44133758544922, 489.620849609375)" fill="#000000" stroke="none" style="">
    <path d="M2269 6187 c-85 -29 -160 -56 -167 -60 -7 -5 -12 -23 -12 -42 0 -26 7 -38 30 -55 62 -44 60 -22 60 -675 l0 -596 -45 -43 c-49 -48 -53 -60 -29 -94 15 -22 19 -22 248 -22 167 0 235 3 244 12 7 7 12 26 12 42 0 24 -9 39 -42 68 l-43 36 -5 732 c-5 802 -1 751 -65 749 -16 -1 -100 -24 -186 -52z"/>
    <path d="M4845 6200 c-66 -22 -137 -45 -157 -50 -48 -13 -68 -34 -68 -70 0 -20 9 -35 30 -50 63 -45 61 -21 58 -680 l-3 -600 -42 -39 c-47 -42 -51 -55 -27 -89 15 -22 19 -22 244 -22 225 0 229 0 244 22 25 36 19 57 -31 103 l-47 44 -4 126 -4 127 38 39 c21 21 42 39 46 39 9 0 178 -334 178 -353 0 -7 -13 -24 -30 -39 -31 -27 -37 -55 -20 -89 10 -18 24 -19 259 -19 227 0 249 2 264 18 24 27 21 59 -9 85 -107 93 -116 106 -252 381 -73 147 -132 271 -130 276 2 4 52 53 111 109 73 70 125 110 161 126 54 24 72 47 61 78 -10 24 -37 27 -241 27 -206 0 -219 -3 -212 -52 2 -15 16 -29 40 -40 51 -24 59 -57 26 -104 -27 -37 -233 -267 -269 -300 l-20 -18 3 513 c3 624 23 573 -197 501z"/>
    <path d="M6468 6230 c-222 -27 -393 -157 -504 -385 -64 -132 -92 -233 -103 -378 -23 -313 44 -565 188 -707 106 -105 218 -160 364 -180 77 -11 207 -2 289 21 149 40 263 153 327 324 25 68 21 102 -13 111 -50 12 -69 1 -106 -61 -47 -80 -100 -132 -167 -162 -48 -22 -65 -25 -132 -21 -166 10 -273 118 -333 333 -20 73 -22 103 -22 325 0 219 3 253 22 323 33 121 75 198 136 254 79 72 154 89 251 56 77 -26 128 -85 196 -229 33 -68 68 -128 79 -134 31 -17 90 -12 97 7 8 19 -34 395 -48 430 -12 32 -50 48 -86 36 -22 -8 -50 -5 -118 12 -107 27 -225 36 -317 25z"/>
    <path d="M803 6195 c-38 -27 -29 -76 19 -101 16 -8 38 -29 48 -47 19 -31 20 -55 20 -651 l0 -618 -34 -32 c-18 -17 -42 -38 -54 -46 -30 -22 -36 -53 -15 -79 18 -22 19 -22 428 -24 451 -2 466 -1 602 63 122 57 209 179 234 329 35 212 -79 381 -309 456 l-51 17 58 29 c69 35 153 120 184 186 32 69 32 227 0 296 -51 109 -129 170 -268 209 -74 20 -106 22 -460 25 -338 4 -383 2 -402 -12z m672 -166 c50 -14 100 -64 114 -114 16 -58 13 -183 -5 -246 -23 -77 -50 -117 -97 -141 -44 -22 -148 -39 -191 -31 l-26 5 0 262 c0 145 3 266 7 269 10 11 154 8 198 -4z m-23 -680 c151 -32 209 -110 210 -284 2 -171 -52 -278 -152 -305 -24 -6 -82 -10 -128 -8 -69 2 -86 6 -98 22 -11 16 -14 74 -14 303 l0 283 65 0 c35 0 88 -5 117 -11z"/>
    <path d="M7878 5913 c-49 -69 -114 -145 -160 -187 -59 -54 -78 -77 -78 -97 0 -31 28 -59 58 -59 l22 0 0 -370 c0 -228 4 -388 11 -420 15 -72 64 -138 124 -169 43 -22 63 -26 140 -26 78 0 98 4 150 28 69 32 155 111 155 142 0 43 -41 58 -83 31 -12 -8 -40 -18 -62 -21 -32 -5 -45 -2 -66 13 -45 36 -49 73 -49 446 l0 346 114 0 c132 0 139 4 134 77 l-3 48 -122 3 -123 3 0 92 c-1 118 -10 209 -22 225 -6 6 -21 12 -34 12 -18 0 -41 -25 -106 -117z"/>
    <path d="M3030 5709 c-97 -25 -167 -68 -245 -151 -70 -74 -116 -159 -140 -259 -19 -83 -19 -248 0 -324 55 -216 219 -367 428 -395 274 -38 519 141 583 426 24 110 16 284 -18 376 -66 176 -201 296 -377 334 -88 18 -141 17 -231 -7z m163 -138 c16 -10 39 -34 52 -53 113 -166 113 -643 0 -766 -29 -32 -39 -37 -78 -37 -99 0 -159 95 -186 298 -30 221 4 474 74 544 39 39 92 45 138 14z"/>
    <path d="M4160 5720 c-124 -26 -267 -133 -338 -251 -67 -114 -99 -262 -87 -402 13 -157 53 -255 141 -347 99 -104 207 -145 368 -138 83 3 111 9 158 30 71 33 137 93 172 158 33 60 31 90 -7 108 -26 13 -32 11 -68 -15 -72 -52 -101 -63 -167 -63 -111 0 -179 47 -230 157 -110 241 -36 633 121 633 60 0 83 -30 112 -140 33 -128 63 -158 147 -147 82 11 133 76 124 160 -11 103 -89 194 -203 237 -64 24 -178 33 -243 20z"/>
    <path d="M7295 5664 c-82 -25 -155 -50 -162 -56 -22 -18 -14 -53 18 -84 58 -54 59 -64 59 -409 0 -351 -2 -361 -64 -408 -41 -31 -45 -58 -16 -87 19 -19 33 -20 240 -20 207 0 221 1 240 20 25 25 26 55 1 76 -10 9 -34 30 -52 46 l-32 30 6 457 c5 342 3 461 -5 469 -21 21 -79 12 -233 -34z"/>
    <path d="M8341 5686 c-24 -29 -9 -69 36 -94 31 -17 48 -36 67 -75 31 -67 262 -685 324 -867 l47 -140 -24 -45 c-34 -64 -93 -115 -133 -115 -24 0 -40 10 -70 42 -35 38 -43 42 -89 42 -46 1 -54 -2 -84 -36 -19 -20 -37 -49 -41 -63 -16 -63 28 -144 93 -171 18 -8 65 -14 105 -14 60 0 83 5 133 29 176 86 239 209 484 935 67 196 130 374 141 395 11 22 40 57 65 78 50 42 61 84 26 103 -11 5 -84 10 -165 10 -143 0 -146 0 -162 -24 -20 -31 -9 -53 37 -75 34 -16 34 -17 33 -86 0 -59 -12 -105 -78 -303 -43 -127 -81 -234 -85 -236 -7 -5 -222 580 -221 601 0 7 12 15 28 19 58 12 72 22 72 53 0 20 -7 34 -19 41 -12 6 -115 10 -264 10 -201 0 -247 -3 -256 -14z"/>
  </g>
  <ellipse style="stroke: rgb(0, 0, 0); paint-order: fill; fill: rgb(12, 180, 203); stroke-opacity: 0; stroke-width: 0px;" cx="365.957" cy="165.848" rx="10.14" ry="10.14"/>
</svg>